<svg width="128" height="128" viewBox="0 0 128 128" fill="none" xmlns="http://www.w3.org/2000/svg">
<path d="M91.24 12.16C90.9952 12.2567 90.7712 12.3992 90.58 12.58C90.4035 12.7746 90.2615 12.9978 90.16 13.24C90.0575 13.4805 90.0032 13.7387 90 14C90.0078 14.5295 90.2149 15.0365 90.58 15.42C90.7712 15.6008 90.9952 15.7434 91.24 15.84C91.4804 15.9425 91.7387 15.9969 92 16C92.3973 16.0023 92.7862 15.8863 93.1172 15.6667C93.4483 15.4471 93.7064 15.1339 93.8588 14.767C94.0111 14.4001 94.0507 13.9962 93.9726 13.6067C93.8944 13.2172 93.7021 12.8598 93.42 12.58C93.1388 12.3025 92.7816 12.1145 92.3936 12.0398C92.0057 11.965 91.6042 12.0069 91.24 12.16Z" fill="black"/>
<path d="M101.42 12.58C101.139 12.3025 100.782 12.1145 100.394 12.0398C100.006 11.965 99.6042 12.0069 99.24 12.16C98.9953 12.2567 98.7712 12.3992 98.58 12.58C98.395 12.7679 98.2518 12.9928 98.16 13.24C98.0575 13.4805 98.0032 13.7387 98 14C97.9909 14.3974 98.1052 14.7877 98.3273 15.1173C98.5494 15.4469 98.8683 15.6994 99.24 15.84C99.4805 15.9425 99.7387 15.9969 100 16C100.53 15.9961 101.039 15.7884 101.42 15.42C101.785 15.0365 101.992 14.5295 102 14C101.997 13.7387 101.942 13.4805 101.84 13.24C101.743 12.9953 101.601 12.7712 101.42 12.58Z" fill="black"/>
<path d="M109.84 13.24C109.796 13.1126 109.736 12.9915 109.66 12.88C109.586 12.7752 109.506 12.6751 109.42 12.58C109.14 12.298 108.783 12.1056 108.393 12.0275C108.004 11.9493 107.6 11.989 107.233 12.1413C106.866 12.2936 106.553 12.5518 106.333 12.8828C106.114 13.2138 105.998 13.6028 106 14C106 14.5305 106.211 15.0392 106.586 15.4143C106.961 15.7893 107.47 16 108 16C108.53 16 109.039 15.7893 109.414 15.4143C109.789 15.0392 110 14.5305 110 14C109.997 13.8725 109.983 13.7455 109.96 13.62C109.942 13.4876 109.901 13.3591 109.84 13.24Z" fill="black"/>
<path d="M25.8939 94C27.2187 96.164 29.239 97.8141 31.6239 98.68C31.8235 100.254 32.4875 101.733 33.5313 102.927C34.575 104.122 35.9511 104.979 37.4839 105.388C38.1636 105.57 38.8642 105.663 39.5679 105.664C41.3691 105.661 43.1162 105.048 44.524 103.925C45.9319 102.801 46.9175 101.234 47.3199 99.478C47.6259 99.428 47.9199 99.38 48.2359 99.322C51.8659 109.526 57.5219 116 63.9999 116C70.4779 116 76.1359 109.524 79.7679 99.316C82.4051 99.8225 85.0826 100.09 87.7679 100.116C94.5679 100.116 99.7319 98.116 102.11 93.994C103.325 91.7683 103.748 89.1957 103.31 86.698C104.786 85.5752 105.825 83.9746 106.251 82.17C106.678 80.3654 106.464 78.4687 105.646 76.8044C104.829 75.1401 103.458 73.8115 101.77 73.0457C100.081 72.2798 98.1786 72.1244 96.3879 72.606C96.3039 72.628 96.2319 72.672 96.1479 72.696C95.9479 72.46 95.7599 72.222 95.5479 71.986C102.568 63.738 105.348 55.604 102.11 49.986C98.8719 44.368 90.4319 42.714 79.7719 44.674C76.1359 34.478 70.4799 28 63.9999 28C61.4637 28.0646 59.0246 28.9883 57.0819 30.62C55.3532 29.8895 53.4224 29.7916 51.6286 30.3433C49.8349 30.895 48.2928 32.0611 47.2734 33.6368C46.254 35.2124 45.8224 37.0969 46.0544 38.9592C46.2863 40.8215 47.1671 42.5426 48.5419 43.82C48.4339 44.11 48.3259 44.396 48.2219 44.69C37.5679 42.732 29.1339 44.392 25.8939 50.004C22.6539 55.616 25.4379 63.754 32.4639 72.004C25.4379 80.25 22.6539 88.388 25.8939 94ZM43.4179 98.696C43.1784 99.5899 42.6364 100.373 41.8842 100.912C41.132 101.451 40.2162 101.713 39.2928 101.652C38.3694 101.592 37.4955 101.213 36.8201 100.58C36.1446 99.9478 35.7094 99.1007 35.5885 98.1832C35.4676 97.2657 35.6686 96.3347 36.1572 95.5489C36.6457 94.763 37.3917 94.1708 38.2679 93.8732C39.1441 93.5756 40.0964 93.591 40.9626 93.9168C41.8287 94.2426 42.5551 94.8587 43.0179 95.66C43.2824 96.1143 43.4539 96.6167 43.5226 97.1379C43.5913 97.659 43.5557 98.1887 43.4179 98.696ZM47.9999 72C47.9999 68.93 48.1599 65.916 48.4419 62.984C50.7739 61.334 53.2879 59.71 55.9999 58.144C58.7119 56.578 61.3999 55.2 63.9999 54C66.5999 55.2 69.2779 56.568 71.9999 58.14C74.6599 59.676 77.1879 61.32 79.5879 63.03C79.8519 65.878 79.9999 68.868 79.9999 72C79.9999 75.132 79.8499 78.142 79.5839 81C77.2439 82.656 74.7219 84.286 71.9999 85.858C69.3399 87.394 66.6499 88.76 63.9699 89.984C61.3699 88.784 58.7119 87.424 55.9999 85.858C53.2879 84.292 50.7559 82.658 48.4159 81C48.1499 78.142 47.9999 75.144 47.9999 72ZM44.1839 77.782C41.9404 75.9862 39.8084 74.0553 37.7999 72C39.8142 69.9435 41.9514 68.0113 44.1999 66.214C44.0759 68.124 43.9999 70.048 43.9999 72C43.9999 73.952 44.0759 75.888 44.1839 77.782ZM49.1059 57.716C49.547 54.8817 50.1588 52.0766 50.9379 49.316C53.7093 50.0259 56.435 50.9036 59.0999 51.944C57.4059 52.798 55.6999 53.692 53.9999 54.676C52.2999 55.66 50.6839 56.68 49.1059 57.716ZM68.9059 51.946C71.5829 50.9004 74.3214 50.0194 77.1059 49.308C77.8813 52.0772 78.487 54.8911 78.9199 57.734C77.3199 56.684 75.6939 55.654 74.0039 54.678C72.3139 53.702 70.5999 52.8 68.8999 51.946H68.9059ZM83.8239 66.242C86.0569 68.042 88.1794 69.9748 90.1799 72.03C88.1781 74.0734 86.055 75.9942 83.8219 77.782C83.9239 75.888 83.9999 73.97 83.9999 72C83.9999 70.03 83.9259 68.128 83.8179 66.242H83.8239ZM78.9159 86.27C78.4829 89.1116 77.8771 91.9241 77.1019 94.692C74.3177 93.9788 71.5793 93.0972 68.9019 92.052C70.6099 91.194 72.3159 90.296 74.0059 89.322C75.6959 88.348 77.3299 87.312 78.9159 86.27ZM53.9999 89.322C55.6939 90.3 57.3839 91.198 59.0659 92.046C56.3946 93.0759 53.6636 93.9442 50.8879 94.646C50.1187 91.8911 49.5175 89.0919 49.0879 86.264C50.6699 87.312 52.2939 88.336 53.9999 89.322ZM63.9999 112C59.6999 112 55.2359 107.01 52.1159 98.472C56.1797 97.4124 60.1534 96.0335 63.9999 94.348C67.8453 96.0372 71.8201 97.415 75.8859 98.468C72.7659 107.01 68.2999 112 63.9999 112ZM98.6399 92C96.4899 95.726 89.9299 97.098 80.9679 95.524C82.0909 91.477 82.8875 87.3464 83.3499 83.172C86.2736 81.0189 89.0486 78.6709 91.6559 76.144C91.6139 76.214 91.5579 76.27 91.5159 76.344C90.8143 77.5593 90.4447 78.9377 90.4441 80.341C90.4436 81.7442 90.8122 83.1229 91.5129 84.3387C92.2136 85.5545 93.2217 86.5646 94.4362 87.2676C95.6507 87.9706 97.0287 88.3419 98.4319 88.344C98.771 88.3439 99.1097 88.3219 99.4459 88.278C99.536 89.57 99.2565 90.861 98.6399 92ZM100.44 76.876C101.124 77.2717 101.675 77.861 102.025 78.5697C102.374 79.2785 102.506 80.0748 102.403 80.8582C102.3 81.6417 101.968 82.3772 101.448 82.9719C100.927 83.5666 100.243 83.994 99.4799 84.2C98.8445 84.3701 98.177 84.3808 97.5365 84.2313C96.8959 84.0818 96.3021 83.7766 95.8077 83.3428C95.3133 82.909 94.9334 82.3599 94.7019 81.7443C94.4703 81.1286 94.3941 80.4654 94.4801 79.8132C94.566 79.1611 94.8115 78.5402 95.1947 78.0056C95.5779 77.471 96.087 77.0392 96.677 76.7483C97.267 76.4575 97.9195 76.3166 98.577 76.3382C99.2344 76.3597 99.8763 76.5431 100.446 76.872L100.44 76.876ZM98.6399 52C100.79 55.724 98.7019 62.086 92.8659 69.056C89.9161 66.0644 86.7334 63.3118 83.3479 60.824C82.8873 56.6508 82.0914 52.5215 80.9679 48.476C89.9299 46.902 96.4899 48.274 98.6399 52ZM75.8879 45.544C71.8216 46.5944 67.8462 47.9695 63.9999 49.656C60.6741 48.1999 57.2537 46.9704 53.7619 45.976C53.8439 45.976 53.9179 46 53.9999 46C56.1217 46 58.1565 45.1571 59.6568 43.6569C61.1571 42.1566 61.9999 40.1217 61.9999 38C61.9936 36.2554 61.4115 34.5618 60.3439 33.182C61.4247 32.4469 62.6934 32.0367 63.9999 32C68.3019 32 72.7699 37 75.8879 45.544ZM53.9999 34C54.7911 34 55.5644 34.2346 56.2222 34.6741C56.88 35.1136 57.3927 35.7384 57.6954 36.4693C57.9982 37.2002 58.0774 38.0044 57.9231 38.7804C57.7687 39.5563 57.3878 40.269 56.8284 40.8284C56.2689 41.3878 55.5562 41.7688 54.7803 41.9231C54.0044 42.0775 53.2001 41.9983 52.4692 41.6955C51.7383 41.3928 51.1136 40.8801 50.674 40.2223C50.2345 39.5645 49.9999 38.7911 49.9999 38C49.9999 36.9391 50.4214 35.9217 51.1715 35.1716C51.9216 34.4214 52.9391 34 53.9999 34ZM29.3599 52C31.5079 48.276 38.0619 46.904 47.0179 48.472C45.9037 52.5233 45.1106 56.6561 44.6459 60.832C41.2632 63.3185 38.0856 66.0727 35.1439 69.068C29.2999 62.092 27.1999 55.726 29.3599 52ZM35.1439 74.932C38.087 77.9286 41.2659 80.6841 44.6499 83.172C45.0521 86.7816 45.6983 90.3597 46.5839 93.882C46.5439 93.81 46.5239 93.732 46.4839 93.66C45.9586 92.75 45.2592 91.9523 44.4256 91.3126C43.5919 90.6729 42.6405 90.2037 41.6255 89.9318C40.6105 89.6599 39.5519 89.5907 38.5101 89.728C37.4683 89.8652 36.4638 90.2064 35.5539 90.732C34.0473 91.6103 32.872 92.9606 32.2099 94.574C31.0332 94.0063 30.0441 93.113 29.3599 92C27.1999 88.274 29.2999 81.908 35.1439 74.932Z" fill="black"/>
<path d="M76 72C76 69.6266 75.2962 67.3066 73.9776 65.3332C72.6591 63.3598 70.7849 61.8217 68.5922 60.9135C66.3995 60.0052 63.9867 59.7676 61.6589 60.2306C59.3311 60.6936 57.193 61.8365 55.5147 63.5147C53.8365 65.193 52.6936 67.3311 52.2306 69.6589C51.7676 71.9867 52.0052 74.3995 52.9135 76.5922C53.8217 78.7849 55.3598 80.6591 57.3332 81.9776C59.3066 83.2962 61.6266 84 64 84C67.1816 83.9968 70.232 82.7315 72.4818 80.4818C74.7315 78.232 75.9968 75.1816 76 72ZM56 72C56 70.4178 56.4692 68.871 57.3482 67.5554C58.2273 66.2398 59.4767 65.2145 60.9385 64.609C62.4003 64.0035 64.0089 63.845 65.5607 64.1537C67.1126 64.4624 68.538 65.2243 69.6569 66.3432C70.7757 67.462 71.5376 68.8874 71.8463 70.4393C72.155 71.9911 71.9965 73.5997 71.391 75.0615C70.7855 76.5233 69.7602 77.7727 68.4446 78.6518C67.129 79.5308 65.5823 80 64 80C61.8783 80 59.8434 79.1572 58.3432 77.6569C56.8429 76.1566 56 74.1217 56 72Z" fill="black"/>
<path d="M106 4H22C17.2279 4.00582 12.6529 5.90411 9.27851 9.27851C5.90411 12.6529 4.00582 17.2279 4 22V106C4.00582 110.772 5.90411 115.347 9.27851 118.721C12.6529 122.096 17.2279 123.994 22 124H106C110.772 123.994 115.347 122.096 118.721 118.721C122.096 115.347 123.994 110.772 124 106V22C123.994 17.2279 122.096 12.6529 118.721 9.27851C115.347 5.90411 110.772 4.00582 106 4ZM22 8H106C109.366 8.00419 112.617 9.21872 115.162 11.4218C117.706 13.6249 119.373 16.6696 119.858 20H8.142C8.62731 16.6696 10.2943 13.6249 12.8385 11.4218C15.3827 9.21872 18.6345 8.00419 22 8ZM120 106C119.996 109.712 118.519 113.27 115.895 115.895C113.27 118.519 109.712 119.996 106 120H22C18.2883 119.996 14.7298 118.519 12.1052 115.895C9.48059 113.27 8.00423 109.712 8 106V24H120V106Z" fill="black"/>
</svg>
