<svg width="64" height="64" viewBox="0 0 64 64" fill="none" xmlns="http://www.w3.org/2000/svg">
<path d="M17 6L16.75 8.03C16.62 8.58 16.43 9.11 16.19 9.62C15.67 10.74 14.9 11.75 13.93 12.56L12.22 13.98C11.45 14.63 11 15.58 11 16.59C11 17.49 11.36 18.36 12 19L13 20L12.7 20.15C11.66 20.67 11 21.73 11 22.9V22.93C11 24.63 12.37 26 14.07 26C14.68 26 15.27 25.82 15.77 25.48L18 24C19.14 24.58 20.14 25.38 20.94 26.34C21.74 27.3 22.34 28.42 22.69 29.64C22.4 30.06 22.19 30.53 22.08 31.05C20.54 30.36 18.86 30 17.17 30H15.42C12.23 30 9.24 28.74 7.04 26.59C6.09 25.67 5.29 24.59 4.68 23.37L4.18 22.36C3.4 20.81 3 19.1 3 17.36C3 13.02 5.52 9.08 9.44 7.25C9.16 6.91 9 6.47 9 6C9 4.9 9.45 3.9 10.17 3.17C10.9 2.45 11.9 2 13 2C14.1 2 15.1 2.45 15.83 3.17C16.55 3.9 17 4.9 17 6Z" fill="white"/>
<path d="M31 53V62H19V53C19 52.45 19.45 52 20 52H21H29H30C30.55 52 31 52.45 31 53Z" fill="#94A8B3"/>
<path d="M47 53V62H35V53C35 52.45 35.45 52 36 52H37H45H46C46.55 52 47 52.45 47 53Z" fill="#94A8B3"/>
<path d="M15.72 38.74C15.69 38.7 15.66 38.65 15.63 38.61C15.22 37.96 15 37.19 15 36.39C15 35.73 15.27 35.13 15.7 34.7C16.13 34.27 16.73 34 17.39 34C17.79 34 18.18 34.1 18.54 34.29L24.83 37.73C25.01 37.83 25.19 37.93 25.36 38.05C26.83 39 27.92 40.39 28.51 42C28.83 42.86 29 43.79 29 44.75V52H21C20.35 50.7 19.3 49.65 18 49L10.52 45.26C8.9 44.45 7.66 43.05 7.05 41.35L3.54 31.51C3.18 30.51 3 29.46 3 28.4C3 27.74 3.27 27.14 3.7 26.7C4.14 26.27 4.74 26 5.4 26C6.01 26 6.57 26.23 7.01 26.62C7.27 26.85 7.48 27.14 7.62 27.48L10.98 35.54C11.62 37.08 12.98 38.2 14.61 38.52L15.72 38.74Z" fill="white"/>
<path d="M60.6 26L61 26.04C61.5 26.12 61.95 26.36 62.3 26.7C62.73 27.14 63 27.74 63 28.4C63 29.46 62.82 30.51 62.46 31.51L58.95 41.35C58.34 43.05 57.1 44.45 55.48 45.26L48 49C46.7 49.65 45.65 50.7 45 52H37V44.75C37 42.59 37.87 40.56 39.35 39.08C39.88 38.55 40.49 38.1 41.17 37.73L47.46 34.29C47.82 34.1 48.21 34 48.61 34L49.43 34.15C49.76 34.27 50.06 34.46 50.3 34.7C50.73 35.13 51 35.73 51 36.39C51 37.19 50.78 37.96 50.37 38.61C50.34 38.65 50.31 38.7 50.28 38.74L51.39 38.52C53.02 38.2 54.38 37.08 55.02 35.54L57.15 30.42H57.16L58.38 27.48C58.76 26.58 59.63 26 60.6 26Z" fill="white"/>
<path d="M61.0001 24.61V26.03V26.04L60.6001 26C59.6301 26 58.7601 26.58 58.3801 27.48L57.1601 30.42H57.1501L56.7801 30.61C56.2701 30.87 55.7001 31 55.1201 31C54.3901 31 53.6701 30.78 53.0601 30.38L48.3901 27.26C48.5601 27.73 48.7801 28.18 49.0601 28.6C49.6701 29.51 50.0001 30.59 50.0001 31.69C50.0001 32.54 49.8001 33.38 49.4301 34.14V34.15L48.6101 34C48.2101 34 47.8201 34.1 47.4601 34.29L41.1701 37.73C40.4901 38.1 39.8801 38.55 39.3501 39.08L39.2601 39C39.8801 38.37 40.4201 37.65 40.8601 36.86L42.0301 34.75C42.6701 33.6 43.0001 32.31 43.0001 31C43.0001 30.17 42.6601 29.42 42.1201 28.88C41.8501 28.61 41.5301 28.39 41.1701 28.24L41.6901 25.91L42.0201 24.41C42.5901 21.83 44.8801 20 47.5201 20H47.6001C49.1401 20 50.6101 20.61 51.6801 21.68C53.1401 23.14 55.0001 25 55.0001 25L56.2301 23.16C56.7101 22.44 57.5201 22 58.3901 22C59.1101 22 59.7601 22.29 60.2401 22.76C60.7101 23.24 61.0001 23.89 61.0001 24.61Z" fill="white"/>
<path d="M36.08 24.31L41.69 25.91L41.17 28.24L40 28C38.34 28 37 29.34 37 31V32L33.83 33.59C33.59 33.71 33.36 33.84 33.13 33.98L29.15 29.34C28.54 28.63 27.69 28.17 26.77 28.04L27.58 27.02C28.32 26.09 29.25 25.35 30.29 24.84C31.39 24.29 32.61 24 33.87 24C34.62 24 35.37 24.1 36.08 24.31Z" fill="white"/>
<path d="M33.13 33.98C33.36 33.84 33.59 33.71 33.83 33.59L37 32V31C37 29.34 38.34 28 40 28L41.17 28.24C41.53 28.39 41.85 28.61 42.12 28.88C42.66 29.42 43 30.17 43 31C43 32.31 42.67 33.6 42.03 34.75L40.86 36.86C40.42 37.65 39.88 38.37 39.26 39C37.4 40.89 34.84 42 32.12 42H28.51C27.92 40.39 26.83 39 25.36 38.05V38.04L22.64 33.97C22.22 33.34 22 32.6 22 31.84C22 31.57 22.03 31.3 22.08 31.05C22.19 30.53 22.4 30.06 22.69 29.64C23.39 28.65 24.54 28 25.84 28H26.23C26.41 28 26.59 28.01 26.77 28.04C27.69 28.17 28.54 28.63 29.15 29.34L33.13 33.98Z" fill="white"/>
<path d="M31 20.8493C31 21.6193 30.91 22.3693 30.72 23.1093L30.29 24.8393C29.25 25.3493 28.32 26.0893 27.58 27.0193L26.77 28.0393C26.59 28.0093 26.41 27.9993 26.23 27.9993H25.84C24.54 27.9993 23.39 28.6493 22.69 29.6393C22.34 28.4193 21.74 27.2993 20.94 26.3393C20.14 25.3793 19.14 24.5793 18 23.9993L15.77 25.4793C15.27 25.8193 14.68 25.9993 14.07 25.9993C12.37 25.9993 11 24.6293 11 22.9293V22.8993C11 21.7293 11.66 20.6693 12.7 20.1493L13 19.9993L12 18.9993C11.36 18.3593 11 17.4893 11 16.5893C11 15.5793 11.45 14.6293 12.22 13.9793L13.93 12.5593C14.9 11.7493 15.67 10.7393 16.19 9.6193C16.43 9.1093 16.62 8.5793 16.75 8.0293H16.76C18.45 8.1593 20.08 8.7193 21.5 9.6593L22.5 10.3393C24.13 11.4193 26.04 11.9993 28 11.9993V13.9993L28.27 14.2693C28.82 14.8193 29.31 15.4493 29.7 16.1193L26.45 17.4193C25.57 17.7693 25 18.6193 25 19.5593V19.6993C25 20.9693 26.03 21.9993 27.3 21.9993C27.76 21.9993 28.2 21.8693 28.58 21.6093L30.96 20.0193H30.97C30.99 20.2993 31 20.5693 31 20.8493Z" fill="white"/>
<path d="M30.97 20.0196H30.96L28.58 21.6096C28.2 21.8696 27.76 21.9996 27.3 21.9996C26.03 21.9996 25 20.9696 25 19.6996V19.5596C25 18.6196 25.57 17.7696 26.45 17.4196L29.7 16.1196C30.41 17.2996 30.84 18.6396 30.97 20.0196Z" fill="white"/>
<path d="M62 25.31V24.605C62 22.617 60.383 21 58.395 21C57.187 21 56.066 21.6 55.395 22.605L54.845 23.43L52.392 20.977C51.116 19.702 49.414 19 47.518 19C44.383 19 41.721 21.137 41.042 24.196L40.94 24.656L36.36 23.347C35.549 23.117 34.712 23 33.872 23C33.132 23 32.408 23.095 31.708 23.266C31.899 22.476 32 21.666 32 20.854C32 18.11 30.935 15.53 29 13.585V11H28C26.236 11 24.527 10.482 23.059 9.504L22.051 8.832C20.805 8.001 19.392 7.45 17.921 7.186C17.969 6.795 18 6.4 18 6C18 3.243 15.757 1 13 1C10.243 1 8 3.243 8 6C8 6.281 8.051 6.549 8.124 6.807C4.375 8.957 2 12.996 2 17.363C2 19.243 2.444 21.125 3.284 22.806L3.789 23.813C4.017 24.269 4.274 24.702 4.547 25.121C3.086 25.503 2 26.822 2 28.4C2 29.578 2.2 30.736 2.597 31.842L6.113 41.688C6.81 43.639 8.216 45.224 10.069 46.152L17.553 49.894C18.18 50.208 18.734 50.649 19.206 51.166C18.498 51.474 18 52.18 18 53V63H32V53C32 51.897 31.103 51 30 51V44.749C30 44.153 29.922 43.572 29.808 43H32.116C33.613 43 35.067 42.695 36.401 42.13C36.146 42.968 36 43.846 36 44.749V51C34.897 51 34 51.897 34 53V63H48V53C48 52.18 47.502 51.474 46.794 51.166C47.266 50.649 47.82 50.208 48.447 49.894L55.931 46.152C57.785 45.224 59.19 43.639 59.887 41.687L63.403 31.843C63.8 30.736 64 29.578 64 28.4C64 27.026 63.176 25.846 62 25.31ZM42.995 24.63C43.469 22.492 45.328 21 47.599 21C48.88 21 50.08 21.494 50.978 22.392L55.156 26.57L57.059 23.716C57.357 23.268 57.856 23 58.395 23C59.28 23 60 23.72 60 24.605V25.058C58.875 25.259 57.913 26.009 57.462 27.091L56.378 29.693L56.337 29.714C55.483 30.143 54.415 30.075 53.62 29.545L49.225 26.615C49.077 26.121 49 25.605 49 25.08V25L47 25.08C47 26.535 47.427 27.943 48.233 29.152C48.735 29.904 49 30.78 49 31.686C49 32.138 48.925 32.587 48.793 33.019C48.731 33.015 48.672 33 48.609 33C48.045 33 47.483 33.143 46.986 33.414L42.578 35.818L42.902 35.234C43.62 33.943 44 32.479 44 31C44 29.653 43.327 28.466 42.304 27.741L42.995 24.63ZM50.669 33.716C50.882 33.061 51 32.374 51 31.686C51 31.13 50.916 30.586 50.781 30.056L52.511 31.21C53.287 31.727 54.19 32 55.124 32C55.224 32 55.324 31.989 55.424 31.982L54.101 35.157C53.685 36.155 52.889 36.922 51.908 37.32C51.962 37.016 52 36.707 52 36.391C52 35.299 51.473 34.337 50.669 33.716ZM35.811 25.271L40.505 26.613L40.41 27.041C40.273 27.027 40.14 27 40 27C37.794 27 36 28.794 36 31V31.382L33.381 32.692C33.371 32.697 33.362 32.703 33.352 32.708L29.909 28.69C29.499 28.211 29.002 27.829 28.455 27.547C29.799 25.929 31.763 25 33.872 25C34.526 25 35.179 25.091 35.811 25.271ZM29.887 19.54L28.025 20.782C27.811 20.925 27.561 21 27.303 21C26.584 21 26 20.416 26 19.697V19.558C26 19.022 26.321 18.547 26.818 18.349L29.234 17.383C29.549 18.066 29.769 18.789 29.887 19.54ZM17.469 9.138C18.706 9.345 19.896 9.798 20.942 10.496L21.95 11.168C23.47 12.181 25.198 12.79 27.001 12.954V14.414L27.568 14.981C27.783 15.196 27.981 15.422 28.169 15.655L26.077 16.492C24.814 16.997 24 18.2 24 19.559V19.698C24 21.519 25.481 23 27.303 23C27.957 23 28.591 22.809 29.135 22.445L29.929 21.916C29.888 22.236 29.83 22.555 29.752 22.869L29.425 24.177C28.432 24.738 27.536 25.479 26.8 26.399L26.315 27.005C26.288 27.005 26.261 27.001 26.234 27.001H25.838C24.812 27.001 23.864 27.327 23.08 27.873C22.116 25.826 20.494 24.129 18.447 23.106L17.927 22.846L15.218 24.653C14.878 24.88 14.48 25 14.07 25C12.929 25 12 24.071 12 22.897C12 22.108 12.438 21.399 13.145 21.045L14.689 20.274L12.703 18.288C12.256 17.842 12 17.224 12 16.592C12 15.878 12.314 15.206 12.863 14.749L14.566 13.329C15.916 12.205 16.907 10.753 17.469 9.138ZM14 36.391C14 36.708 14.038 37.016 14.092 37.32C13.111 36.922 12.315 36.155 11.899 35.157L9.596 29.63C11.365 30.513 13.345 31 15.416 31H17.167C18.493 31 19.781 31.247 21.013 31.709C21.012 31.753 21 31.794 21 31.838C21 32.795 21.281 33.723 21.813 34.522L22.252 35.18L19.014 33.414C18.517 33.143 17.955 33 17.391 33C15.521 33 14 34.521 14 36.391ZM9.3 8.467C9.784 8.802 10.368 9 11 9C12.654 9 14 7.654 14 6V5H12V6C12 6.552 11.552 7 11 7C10.448 7 10 6.552 10 6C10 4.346 11.346 3 13 3C14.654 3 16 4.346 16 6C16 8.245 15.011 10.355 13.286 11.792L11.582 13.213C10.576 14.052 10 15.283 10 16.592C10 17.75 10.47 18.884 11.288 19.702L11.405 19.819C10.521 20.582 10 21.699 10 22.93C10 25.174 11.826 27 14.07 27C14.877 27 15.657 26.764 16.328 26.316L18.053 25.167C19.718 26.151 20.979 27.71 21.606 29.542C21.568 29.612 21.526 29.681 21.491 29.753C20.102 29.261 18.654 29 17.167 29H15.416C11.223 29 7.453 26.67 5.578 22.918L5.073 21.911C4.371 20.507 4 18.935 4 17.363C4 13.649 6.07 10.238 9.3 8.467ZM30 61H20V53H30V61ZM21.559 51C20.808 49.773 19.735 48.75 18.447 48.105L10.963 44.363C9.572 43.668 8.519 42.478 7.995 41.015L4.479 31.17C4.161 30.279 4 29.348 4 28.4C4 27.628 4.628 27 5.4 27C5.966 27 6.474 27.338 6.692 27.861L10.052 35.926C10.822 37.772 12.451 39.109 14.414 39.502L15.14 39.647C15.604 40.227 16.191 40.714 16.886 41.061L18.022 41.629C19.605 42.421 21.043 43.456 22.293 44.706L23.707 43.292C22.305 41.89 20.692 40.728 18.917 39.84L17.781 39.272C16.683 38.724 16 37.619 16 36.391C16 35.624 16.624 35 17.391 35C17.622 35 17.853 35.059 18.057 35.17L24.353 38.604C26.603 39.831 28 42.186 28 44.749V51H21.559ZM29.169 41C28.501 39.545 27.451 38.282 26.104 37.353L23.477 33.413C23.165 32.944 23 32.399 23 31.838C23 30.273 24.273 29 25.838 29H26.234C27.064 29 27.849 29.361 28.389 29.99L31.674 33.823C30.472 34.835 29.561 36.154 29.051 37.683L30.947 38.316C31.509 36.634 32.689 35.272 34.274 34.48L38 32.618V31C38 29.897 38.897 29 40 29C41.103 29 42 29.897 42 31C42 32.14 41.708 33.268 41.154 34.263L39.983 36.371C38.397 39.227 35.383 41 32.116 41H29.169ZM46 61H36V53H46V61ZM61.521 31.171L58.005 41.015C57.482 42.479 56.428 43.668 55.037 44.364L47.553 48.106C46.265 48.751 45.192 49.774 44.441 51.001H38V44.75C38 42.187 39.397 39.832 41.647 38.604L47.943 35.17C48.147 35.059 48.378 35 48.609 35C49.376 35 50 35.624 50 36.391C50 37.62 49.317 38.724 48.219 39.273L47.083 39.841C45.308 40.729 43.695 41.891 42.293 43.293L43.707 44.707C44.957 43.457 46.395 42.422 47.978 41.63L49.114 41.062C49.808 40.715 50.396 40.228 50.86 39.648L51.587 39.503C53.549 39.109 55.179 37.773 55.948 35.927L59.308 27.862C59.525 27.338 60.033 27 60.6 27C61.372 27 62 27.628 62 28.4C62 29.348 61.839 30.279 61.521 31.171Z" fill="black"/>
<path d="M22 13H20C20 14.103 19.103 15 18 15V17C20.206 17 22 15.206 22 13Z" fill="black"/>
</svg>
