<svg width="64" height="64" viewBox="0 0 64 64" fill="none" xmlns="http://www.w3.org/2000/svg">
<g clip-path="url(#clip0)">
<path d="M63.5001 32.0001C63.5001 49.3971 49.3971 63.5001 32.0001 63.5001C14.6031 63.5001 0.5 49.3971 0.5 32.0001C0.5 14.6031 14.6031 0.5 32.0001 0.5C49.3971 0.5 63.5001 14.6031 63.5001 32.0001Z" fill="white" stroke="black"/>
<path d="M46.6001 46.6004C45.4001 47.8004 43.4 47.8004 42.2 46.6004L32.0001 36.4004L21.8001 46.6004C20.6002 47.8004 18.6 47.8004 17.4001 46.6004C16.2001 45.4004 16.2001 43.4003 17.4001 42.2004L27.6 32.0004L17.4001 21.8005C16.2001 20.6005 16.2001 18.6004 17.4001 17.4005C18.6 16.2005 20.6002 16.2005 21.8001 17.4005L32.0001 27.6004L42.2 17.4005C43.4 16.2005 45.4001 16.2005 46.6001 17.4005C47.8 18.6004 47.8 20.6005 46.6001 21.8005L36.4001 32.0004L46.6001 42.2004C47.8 43.4003 47.8 45.4003 46.6001 46.6004Z" fill="black"/>
</g>
<defs>
<clipPath id="clip0">
<rect width="64" height="64" fill="white"/>
</clipPath>
</defs>
</svg>
