<svg width="128" height="128" viewBox="0 0 128 128" fill="none" xmlns="http://www.w3.org/2000/svg">
<path d="M114 4H14C11.3487 4.00298 8.80694 5.0575 6.93222 6.93222C5.0575 8.80694 4.00298 11.3487 4 14V98C4.00298 100.651 5.0575 103.193 6.93222 105.068C8.80694 106.942 11.3487 107.997 14 108H49.9883C49.8789 112.735 47.9431 117.245 44.5858 120.586C44.306 120.865 44.1155 121.222 44.0384 121.61C43.9612 121.998 44.0008 122.4 44.1522 122.765C44.3036 123.131 44.5599 123.443 44.8888 123.663C45.2177 123.883 45.6044 124 46 124H82C82.3956 124 82.7823 123.883 83.1112 123.663C83.4401 123.443 83.6964 123.131 83.8478 122.765C83.9992 122.4 84.0388 121.998 83.9616 121.61C83.8845 121.222 83.694 120.865 83.4143 120.586C80.0569 117.245 78.1211 112.735 78.0117 108H114C116.651 107.997 119.193 106.942 121.068 105.068C122.942 103.193 123.997 100.651 124 98V14C123.997 11.3487 122.942 8.80694 121.068 6.93222C119.193 5.0575 116.651 4.00298 114 4V4ZM8 14C8.00185 12.4093 8.63459 10.8842 9.75941 9.75941C10.8842 8.63459 12.4093 8.00185 14 8H114C115.591 8.00185 117.116 8.63459 118.241 9.75941C119.365 10.8842 119.998 12.4093 120 14V92H8V14ZM77.7765 120H50.2235C52.6042 116.444 53.912 112.279 53.991 108H74.009C74.088 112.279 75.3958 116.444 77.7765 120V120ZM114 104H14C12.4093 103.998 10.8842 103.365 9.75941 102.241C8.63459 101.116 8.00185 99.5907 8 98V96H120V98C119.998 99.5907 119.365 101.116 118.241 102.241C117.116 103.365 115.591 103.998 114 104V104Z" fill="black"/>
<path d="M114 12H14C13.4696 12 12.9609 12.2107 12.5858 12.5858C12.2107 12.9609 12 13.4696 12 14V86C12 86.5304 12.2107 87.0391 12.5858 87.4142C12.9609 87.7893 13.4696 88 14 88H114C114.53 88 115.039 87.7893 115.414 87.4142C115.789 87.0391 116 86.5304 116 86V14C116 13.4696 115.789 12.9609 115.414 12.5858C115.039 12.2107 114.53 12 114 12ZM112 84H16V16H112V84Z" fill="black"/>
<path d="M31.7451 80H96.2551C96.6274 80 96.9922 79.8961 97.3086 79.7001C97.625 79.504 97.8804 79.2236 98.0461 78.8903C100.662 73.645 102.016 67.8612 102 62C102 41.0467 84.9534 24 64.0001 24C43.0469 24 26.0001 41.0467 26.0001 62C25.9844 67.8612 27.3384 73.6451 29.9541 78.8903C30.1198 79.2236 30.3752 79.504 30.6916 79.7001C31.0081 79.8961 31.3729 80 31.7451 80ZM64.0001 28C82.7479 28 98.0001 43.2525 98.0001 62C98.0134 66.8285 96.9873 71.6033 94.9914 76H33.0089C31.013 71.6033 29.9868 66.8285 30.0001 62C30.0001 43.2525 45.2524 28 64.0001 28V28Z" fill="black"/>
<path d="M37.1618 72H90.8383C91.2691 72 91.6885 71.8609 92.0339 71.6033C92.3794 71.3457 92.6324 70.9835 92.7553 70.5705C94.0867 66.0936 94.3545 61.3676 93.5371 56.7689C92.7198 52.1702 90.84 47.8259 88.0474 44.082C85.2549 40.338 81.6267 37.2978 77.4518 35.2035C73.277 33.1091 68.6707 32.0186 64 32.0186C59.3293 32.0186 54.7231 33.1091 50.5482 35.2035C46.3733 37.2978 42.7451 40.338 39.9526 44.082C37.16 47.8259 35.2802 52.1702 34.4629 56.7689C33.6456 61.3676 33.9133 66.0936 35.2448 70.5705C35.3677 70.9835 35.6207 71.3457 35.9661 71.6033C36.3115 71.8609 36.7309 72 37.1618 72V72ZM49.3118 40.5587L51.2683 43.9475L54.7323 41.9475L52.772 38.552C54.2968 37.8184 55.89 37.2368 57.5288 36.8155L58.2103 40.6815L62.1495 39.987L61.4683 36.1235C62.3018 36.0427 63.146 36 64.0003 36C64.8545 36 65.6988 36.0427 66.5323 36.1235L65.85 39.987L69.7893 40.6815L70.4708 36.8155C72.1095 37.2368 73.7028 37.8184 75.2275 38.552L73.2673 41.9475L76.7313 43.9475L78.6878 40.5587C80.0809 41.5163 81.3781 42.6065 82.5613 43.814L79.5675 46.3267L82.1385 49.3905L85.1358 46.8755C86.1226 48.2493 86.9731 49.716 87.675 51.255L83.9903 52.5962L85.3583 56.355L89.0463 55.0127C89.5017 56.6424 89.796 58.3128 89.925 60H86V64H89.9213C89.8195 65.3474 89.6127 66.6848 89.3028 68H38.6975C38.3876 66.6848 38.1807 65.3474 38.0788 64H42V60H38.0763C38.2052 58.3128 38.4994 56.6424 38.9548 55.0127L42.6428 56.355L44.0108 52.5962L40.325 51.255C41.0269 49.7159 41.8774 48.2489 42.8643 46.875L45.8615 49.39L48.4325 46.3262L45.438 43.8135C46.6212 42.6062 47.9184 41.5162 49.3115 40.5587H49.3118Z" fill="black"/>
<path d="M70 61.9999C70 61.9619 69.9978 61.9249 69.9973 61.8869L80.7023 57.8724L79.2978 54.1274L68.5908 58.1424C67.683 57.0643 66.4245 56.3405 65.0361 56.0979C63.6478 55.8553 62.2184 56.1096 60.9989 56.816C59.7793 57.5225 58.8476 58.636 58.3674 59.961C57.8871 61.286 57.8889 62.7378 58.3725 64.0616C58.8561 65.3854 59.7906 66.4965 61.0119 67.1999C62.2332 67.9033 63.6633 68.1539 65.051 67.9079C66.4387 67.6618 67.6954 66.9348 68.6005 65.8544C69.5055 64.774 70.001 63.4093 70 61.9999V61.9999ZM64 63.9999C63.6044 63.9999 63.2177 63.8827 62.8888 63.6629C62.5599 63.4431 62.3036 63.1308 62.1522 62.7653C62.0008 62.3999 61.9612 61.9977 62.0384 61.6098C62.1156 61.2218 62.3061 60.8654 62.5858 60.5857C62.8655 60.306 63.2218 60.1155 63.6098 60.0384C63.9978 59.9612 64.3999 60.0008 64.7654 60.1522C65.1308 60.3036 65.4432 60.5599 65.6629 60.8888C65.8827 61.2177 66 61.6044 66 61.9999C65.9994 62.5302 65.7885 63.0386 65.4136 63.4135C65.0386 63.7884 64.5302 63.9994 64 63.9999Z" fill="black"/>
<path d="M22 24C23.1046 24 24 23.1046 24 22C24 20.8954 23.1046 20 22 20C20.8954 20 20 20.8954 20 22C20 23.1046 20.8954 24 22 24Z" fill="black"/>
<path d="M28 24C29.1046 24 30 23.1046 30 22C30 20.8954 29.1046 20 28 20C26.8954 20 26 20.8954 26 22C26 23.1046 26.8954 24 28 24Z" fill="black"/>
<path d="M34 24C35.1046 24 36 23.1046 36 22C36 20.8954 35.1046 20 34 20C32.8954 20 32 20.8954 32 22C32 23.1046 32.8954 24 34 24Z" fill="black"/>
<path d="M64 102C65.1046 102 66 101.105 66 100C66 98.8954 65.1046 98 64 98C62.8954 98 62 98.8954 62 100C62 101.105 62.8954 102 64 102Z" fill="black"/>
<path d="M96 20H108V24H96V20Z" fill="black"/>
<path d="M88 20H92V24H88V20Z" fill="black"/>
</svg>
