<svg width="32" height="32" viewBox="0 0 32 32" fill="none" xmlns="http://www.w3.org/2000/svg">
<g clip-path="url(#clip0)">
<path d="M16 0C11.5886 0 8 3.58856 8 8C8 12.1864 11.2334 15.6256 15.3333 15.9663V31.3334C15.3333 31.7019 15.6315 32.0001 16 32.0001C16.3685 32.0001 16.6667 31.7019 16.6667 31.3334V15.9663C20.7666 15.6256 24 12.1864 24 8C24 3.58856 20.4114 0 16 0ZM16 4C13.7943 4 12 5.79425 12 8C12 8.3685 11.7018 8.66669 11.3333 8.66669C10.9648 8.66669 10.6666 8.3685 10.6666 8C10.6666 5.05925 13.0592 2.66669 15.9999 2.66669C16.3684 2.66669 16.6666 2.96487 16.6666 3.33337C16.6667 3.70181 16.3685 4 16 4Z" fill="black"/>
</g>
<defs>
<clipPath id="clip0">
<rect width="32" height="32" fill="white"/>
</clipPath>
</defs>
</svg>
