<svg width="36" height="36" viewBox="0 0 36 36" fill="none" xmlns="http://www.w3.org/2000/svg">
<path d="M3.9375 3.9375C4.24816 3.9375 4.5 3.68566 4.5 3.375C4.5 3.06434 4.24816 2.8125 3.9375 2.8125C3.62684 2.8125 3.375 3.06434 3.375 3.375C3.375 3.68566 3.62684 3.9375 3.9375 3.9375Z" fill="black"/>
<path d="M5.625 3.9375C5.93566 3.9375 6.1875 3.68566 6.1875 3.375C6.1875 3.06434 5.93566 2.8125 5.625 2.8125C5.31434 2.8125 5.0625 3.06434 5.0625 3.375C5.0625 3.68566 5.31434 3.9375 5.625 3.9375Z" fill="black"/>
<path d="M7.3125 3.9375C7.62316 3.9375 7.875 3.68566 7.875 3.375C7.875 3.06434 7.62316 2.8125 7.3125 2.8125C7.00184 2.8125 6.75 3.06434 6.75 3.375C6.75 3.68566 7.00184 3.9375 7.3125 3.9375Z" fill="black"/>
<path d="M7.3125 15.75C8.20252 15.75 9.07254 15.4861 9.81257 14.9916C10.5526 14.4971 11.1294 13.7943 11.47 12.9721C11.8106 12.1498 11.8997 11.245 11.726 10.3721C11.5524 9.49918 11.1238 8.69736 10.4945 8.06802C9.86514 7.43868 9.06332 7.0101 8.19041 6.83647C7.31749 6.66283 6.41269 6.75195 5.59042 7.09254C4.76816 7.43314 4.06535 8.00991 3.57089 8.74994C3.07642 9.48996 2.8125 10.36 2.8125 11.25C2.81384 12.4431 3.28838 13.5869 4.132 14.4305C4.97562 15.2741 6.11944 15.7487 7.3125 15.75ZM7.3125 14.625C7.124 14.6248 6.93584 14.6088 6.75 14.5772V11.25H7.64202L8.60223 12.2103C8.70773 12.3158 8.85081 12.375 9 12.375C9.14919 12.375 9.29227 12.3158 9.39777 12.2103L10.358 11.25H10.6875C10.6865 12.1448 10.3306 13.0027 9.69788 13.6354C9.06516 14.2681 8.2073 14.624 7.3125 14.625ZM10.494 10.125H10.125C9.97581 10.125 9.83274 10.1843 9.72723 10.2897L9 11.017L8.27277 10.2897C8.16726 10.1843 8.02419 10.125 7.875 10.125H6.75V7.92278C7.53355 7.78942 8.33902 7.93729 9.02411 8.34026C9.7092 8.74323 10.2298 9.37537 10.494 10.125ZM5.625 8.32905V10.125H4.131C4.40065 9.36834 4.93006 8.73192 5.625 8.32905ZM5.625 11.25V14.171C5.11229 13.8748 4.68648 13.449 4.39029 12.9363C4.0941 12.4237 3.93795 11.8421 3.9375 11.25H5.625Z" fill="black"/>
<path d="M14.625 7.3125H18.5625V8.4375H14.625V7.3125Z" fill="black"/>
<path d="M3.375 20.25H8.4375V21.375H3.375V20.25Z" fill="black"/>
<path d="M3.375 23.0625H4.5V24.1875H3.375V23.0625Z" fill="black"/>
<path d="M5.625 23.0625H11.25V24.1875H5.625V23.0625Z" fill="black"/>
<path d="M3.375 25.875H7.875V27H3.375V25.875Z" fill="black"/>
<path d="M9 25.875H11.25V27H9V25.875Z" fill="black"/>
<path d="M15.75 11.8125H16.875V12.9375H15.75V11.8125Z" fill="black"/>
<path d="M18 11.8125H22.5V12.9375H18V11.8125Z" fill="black"/>
<path d="M14.625 14.625H19.6875V15.75H14.625V14.625Z" fill="black"/>
<path d="M20.8125 14.625H22.5V15.75H20.8125V14.625Z" fill="black"/>
<path d="M14.625 17.4375H18V18.5625H14.625V17.4375Z" fill="black"/>
<path d="M3.375 17.4375H6.75V18.5625H3.375V17.4375Z" fill="black"/>
<path d="M29.4742 26.9916C30.2914 25.5722 30.565 23.9042 30.2441 22.2981C29.9231 20.692 29.0295 19.2572 27.7295 18.2609C26.4295 17.2646 24.8117 16.7747 23.1774 16.8823C21.5431 16.9899 20.0035 17.6877 18.8454 18.8459C17.6873 20.004 16.9894 21.5435 16.8818 23.1779C16.7742 24.8122 17.2642 26.4299 18.2605 27.7299C19.2568 29.0299 20.6915 29.9236 22.2976 30.2445C23.9037 30.5655 25.5717 30.2919 26.9911 29.4746L31.8777 34.3612C32.2071 34.6902 32.6536 34.875 33.1191 34.8749C33.5846 34.8748 34.031 34.6898 34.3602 34.3606C34.6894 34.0315 34.8743 33.5851 34.8745 33.1195C34.8746 32.654 34.6898 32.2075 34.3608 31.8782L29.4742 26.9916ZM18 23.6255C18 22.513 18.3299 21.4254 18.948 20.5004C19.5661 19.5754 20.4446 18.8544 21.4724 18.4286C22.5003 18.0029 23.6313 17.8915 24.7224 18.1086C25.8135 18.3256 26.8158 18.8613 27.6025 19.648C28.3892 20.4347 28.9249 21.4369 29.1419 22.5281C29.359 23.6192 29.2476 24.7502 28.8218 25.7781C28.3961 26.8059 27.6751 27.6844 26.7501 28.3025C25.8251 28.9206 24.7375 29.2505 23.625 29.2505C22.1337 29.2488 20.7039 28.6556 19.6494 27.6011C18.5949 26.5466 18.0017 25.1168 18 23.6255ZM28.8209 27.9294L29.5795 28.688L28.6875 29.5799L27.929 28.8214C28.2532 28.5523 28.5518 28.2537 28.8209 27.9294ZM33.1193 33.7505C33.0364 33.7507 32.9543 33.7345 32.8778 33.7028C32.8012 33.671 32.7317 33.6245 32.6733 33.5657L29.4831 30.3755L30.375 29.4835L33.5653 32.6737C33.6535 32.7619 33.7136 32.8743 33.7379 32.9967C33.7622 33.119 33.7498 33.2459 33.702 33.3611C33.6543 33.4764 33.5734 33.5749 33.4697 33.6442C33.366 33.7135 33.244 33.7505 33.1193 33.7505Z" fill="black"/>
<path d="M24.75 15.1875V3.9375C24.7491 3.19184 24.4526 2.47697 23.9253 1.9497C23.398 1.42244 22.6832 1.12585 21.9375 1.125H3.9375C3.19184 1.12585 2.47697 1.42244 1.9497 1.9497C1.42244 2.47697 1.12585 3.19184 1.125 3.9375V27.5625C1.12585 28.3082 1.42244 29.023 1.9497 29.5503C2.47697 30.0776 3.19184 30.3741 3.9375 30.375H17.4375V29.25H13.5V5.625H23.625V15.1875H24.75ZM12.375 29.25H3.9375C3.4901 29.2495 3.06118 29.0715 2.74482 28.7552C2.42847 28.4388 2.25051 28.0099 2.25 27.5625V5.625H12.375V29.25ZM2.25 4.5V3.9375C2.25051 3.4901 2.42847 3.06118 2.74482 2.74482C3.06118 2.42847 3.4901 2.25051 3.9375 2.25H21.9375C22.3849 2.25051 22.8138 2.42847 23.1302 2.74482C23.4465 3.06118 23.6245 3.4901 23.625 3.9375V4.5H2.25Z" fill="black"/>
<path d="M23.625 19.125V20.25C24.2925 20.25 24.945 20.4479 25.5 20.8188C26.0551 21.1896 26.4876 21.7167 26.7431 22.3334C26.9985 22.9501 27.0654 23.6287 26.9352 24.2834C26.8049 24.9381 26.4835 25.5395 26.0115 26.0115C25.5395 26.4835 24.9381 26.8049 24.2834 26.9352C23.6287 27.0654 22.9501 26.9985 22.3334 26.7431C21.7167 26.4876 21.1896 26.0551 20.8188 25.5C20.4479 24.945 20.25 24.2925 20.25 23.625H19.125C19.125 24.515 19.3889 25.385 19.8834 26.1251C20.3779 26.8651 21.0807 27.4419 21.9029 27.7825C22.7252 28.1231 23.63 28.2122 24.5029 28.0385C25.3758 27.8649 26.1776 27.4363 26.807 26.807C27.4363 26.1776 27.8649 25.3758 28.0385 24.5029C28.2122 23.63 28.1231 22.7252 27.7825 21.9029C27.4419 21.0807 26.8651 20.3779 26.1251 19.8834C25.385 19.3889 24.515 19.125 23.625 19.125Z" fill="black"/>
<path d="M14.625 20.25H16.3125V21.375H14.625V20.25Z" fill="black"/>
<path d="M14.625 25.875H16.3125V27H14.625V25.875Z" fill="black"/>
<path d="M14.625 23.0625H15.75V24.1875H14.625V23.0625Z" fill="black"/>
</svg>
