<svg id="Layer_35" enable-background="new 0 0 64 64" height="512" viewBox="0 0 64 64" width="512" xmlns="http://www.w3.org/2000/svg"><path d="m27 58v-1.2l1.02-1.02-1.02-1.69v-1.32c.12-.25.22-.51.31-.77h2.69 21v-3l10 6-10 6v-3z" fill="#b4dd7f"/><path d="m55 27c0 13.81-11.19 25-25 25h-2.69c.05-.12.09-.25.13-.37l2.56-.63v-5c10.49 0 19-8.51 19-19s-8.51-19-19-19-19 8.51-19 19h2l-5 6-5-6h2c0-13.81 11.19-25 25-25s25 11.19 25 25z" fill="#b4dd7f"/><path d="m16 40c4.42 0 8 3.58 8 8s-3.58 8-8 8-8-3.58-8-8 3.58-8 8-8zm4 8c0-2.21-1.79-4-4-4s-4 1.79-4 4 1.79 4 4 4 4-1.79 4-4z" fill="#fcd770"/><path d="m36 14h-12c-2.21 0-4 1.79-4 4v22h16c2.21 0 4-1.79 4-4v-18c0-2.21-1.79-4-4-4z" fill="#ff826e"/><path d="m27.8 40 .22.22-1.37 2.27c.31.6.58 1.22.79 1.88l2.56.63v1 5l-2.56.63c-.04.12-.08.25-.13.37h-.31v.77c-.11.25-.22.5-.35.74l.35.58v2.71l-3.22 3.22-2.27-1.37c-.6.31-1.22.58-1.88.79l-.63 2.56h-6l-.63-2.56c-.66-.21-1.28-.48-1.88-.79l-2.27 1.37-4.24-4.24 1.37-2.27c-.31-.6-.58-1.22-.79-1.88l-2.56-.63v-6l2.56-.63c.21-.66.48-1.28.79-1.88l-1.37-2.27 4.24-4.24 2.27 1.37c.6-.31 1.22-.58 1.88-.79l.63-2.56h6l.63 2.56c.12.04.25.08.37.13.52.18 1.02.41 1.51.66l2.27-1.37.22.22zm-3.8 8c0-4.42-3.58-8-8-8s-8 3.58-8 8 3.58 8 8 8 8-3.58 8-8z" fill="#ffc729"/><path d="m24 18v8 8 2.2l3.8 3.8h8.2v-6-8-8z" fill="#e6e9ed"/><path d="m16 39c-4.962 0-9 4.038-9 9s4.038 9 9 9 9-4.038 9-9-4.038-9-9-9zm0 16c-3.86 0-7-3.14-7-7s3.14-7 7-7 7 3.14 7 7-3.14 7-7 7z"/><path d="m16 43c-2.757 0-5 2.243-5 5s2.243 5 5 5 5-2.243 5-5-2.243-5-5-5zm0 8c-1.654 0-3-1.346-3-3s1.346-3 3-3 3 1.346 3 3-1.346 3-3 3z"/><path d="m62.944 55-12.944-7.766v3.766h-10.007c9.39-3.925 16.007-13.203 16.007-24 0-14.336-11.664-26-26-26-14.001 0-25.453 11.125-25.981 25h-3.154l7.135 8.562 7.135-8.562h-3.108c.521-9.462 8.383-17 17.973-17 9.925 0 18 8.075 18 18 0 9.588-7.541 17.426-17 17.949v-.733l-2.794-.687c-.123-.333-.262-.665-.417-.995l.93-1.534h7.281c2.757 0 5-2.243 5-5v-18c0-2.757-2.243-5-5-5h-12c-2.757 0-5 2.243-5 5v13h2v-13c0-1.654 1.346-3 3-3h12c1.654 0 3 1.346 3 3v18c0 1.302-.839 2.402-2 2.816v-21.816h-14v18.281l-1.535.929c-.33-.154-.662-.293-.995-.416l-.686-2.794h-7.567l-.687 2.794c-.332.123-.664.262-.995.417l-2.466-1.493-5.352 5.352 1.493 2.466c-.154.331-.293.663-.417.995l-2.793.685v7.567l2.794.687c.123.333.262.665.416.995l-1.492 2.466 5.351 5.351 2.466-1.493c.331.155.663.293.994.417l.687 2.794h7.567l.687-2.794c.332-.123.664-.262.995-.417l2.466 1.493 5.352-5.352-1.493-2.466c.072-.154.129-.31.195-.465h24.015v-2.234l7.056 4.235-7.056 4.234v-2.234h-14v2h12v3.766zm-12.944-28c0-11.028-8.972-20-20-20s-20 8.972-20 20v1h.865l-2.865 3.438-2.865-3.438h.865v-1c0-13.233 10.767-24 24-24s24 10.767 24 24c0 12.898-10.229 23.448-23 23.975v-4.025c10.562-.527 19-9.26 19-19.95zm-25 8h10v4h-6.786l-3.214-3.214zm10-2h-10v-6h10zm0-14v6h-10v-6zm-11.375 39.759-2.073-1.255-.498.258c-.574.297-1.155.541-1.727.722l-.535.17-.576 2.346h-4.433l-.576-2.345-.535-.17c-.572-.182-1.153-.424-1.728-.722l-.498-.258-2.071 1.255-3.135-3.135 1.255-2.073-.258-.498c-.297-.572-.54-1.153-.722-1.727l-.17-.535-2.345-.576v-4.433l2.345-.576.17-.535c.182-.572.425-1.153.722-1.727l.258-.498-1.255-2.073 3.134-3.134 2.073 1.255.498-.258c.574-.297 1.155-.541 1.727-.722l.535-.17.577-2.345h4.433l.576 2.345.535.17c.574.182 1.155.425 1.727.722l.498.258 2.073-1.255 3.134 3.134-1.255 2.073.259.499c.296.571.539 1.152.722 1.727l.17.535 2.344.576v4.433l-2.345.576-.17.535c-.183.575-.425 1.155-.722 1.727l-.259.499 1.255 2.073z"/><path d="m34 57h2v2h-2z"/><path d="m30 57h2v2h-2z"/><path d="m27 21h2v2h-2z"/><path d="m31 21h2v2h-2z"/><path d="m31 29h2v2h-2z"/><path d="m27 29h2v2h-2z"/></svg>