<svg width="128" height="128" viewBox="0 0 128 128" fill="none" xmlns="http://www.w3.org/2000/svg">
<path d="M85.7369 0H42.4948C35.1433 0 28.8969 5.9943 28.8969 13.3438V114.671C28.8969 122.021 35.0111 128 42.3627 128L85.6759 127.953C93.0265 127.953 99.0401 121.973 99.0401 114.623L99.1031 13.3367C99.1021 5.96075 93.118 0 85.7369 0ZM57.8689 8.00019H70.4147C71.5168 8.00019 72.4145 8.89486 72.4145 9.99998C72.4145 11.1051 71.5168 11.9998 70.4147 11.9998H57.8689C56.7638 11.9998 55.8692 11.1051 55.8692 9.99998C55.8692 8.89486 56.7638 8.00019 57.8689 8.00019ZM50.3303 8.63663C51.0715 7.89649 52.4206 7.88632 53.1607 8.63663C53.5318 9.00669 53.7514 9.52621 53.7514 10.0569C53.7514 10.5775 53.5318 11.096 53.1607 11.467C52.7917 11.8381 52.2701 12.0567 51.7506 12.0567C51.2209 12.0567 50.7116 11.8381 50.3303 11.467C49.9613 11.097 49.7508 10.5775 49.7508 10.0569C49.7498 9.52621 49.9613 9.00669 50.3303 8.63663ZM63.7382 124.036C60.4381 124.036 57.7541 121.35 57.7541 118.051C57.7541 114.751 60.4381 112.066 63.7382 112.066C67.0383 112.066 69.7223 114.751 69.7223 118.051C69.7223 121.35 67.0373 124.036 63.7382 124.036ZM92.8953 107.998H35.8966V19.0006H92.8953V107.998Z" fill="black"/>
</svg>
