<svg width="64" height="64" viewBox="0 0 64 64" fill="none" xmlns="http://www.w3.org/2000/svg">
<path d="M20 62H4C2.895 62 2 61.105 2 60V14C2 11.791 3.791 10 6 10H18C20.209 10 22 11.791 22 14V60C22 61.105 21.105 62 20 62Z" fill="white"/>
<path d="M13.959 10H6C3.791 10 2 11.791 2 14V34.437C9.268 28.764 13.948 19.931 13.959 10Z" fill="white"/>
<path d="M12 24C14.2091 24 16 22.2091 16 20C16 17.7909 14.2091 16 12 16C9.79086 16 8 17.7909 8 20C8 22.2091 9.79086 24 12 24Z" fill="white"/>
<path d="M12 16C9.791 16 8 17.791 8 20C8 21.759 9.142 23.235 10.72 23.772C11.893 21.416 12.78 18.892 13.325 16.243C12.908 16.095 12.467 16 12 16Z" fill="white"/>
<path d="M6 10L8 2H16L18 10H6Z" fill="white"/>
<path d="M12.924 2H8L6 10H13.959C13.959 9.988 13.96 9.976 13.96 9.964C13.96 7.21 13.597 4.542 12.924 2Z" fill="white"/>
<path d="M60 62H32C30.895 62 30 61.105 30 60V24H60C61.105 24 62 24.895 62 26V60C62 61.105 61.105 62 60 62Z" fill="white"/>
<path d="M30 48.957C40.463 44.957 48.201 35.462 49.69 24H30V48.957Z" fill="white"/>
<path d="M56 24H42V20C42 18.895 42.895 18 44 18H54C55.105 18 56 18.895 56 20V24Z" fill="white"/>
<path d="M49.892 18H44C42.895 18 42 18.895 42 20V24H49.69C49.862 22.678 49.96 21.333 49.96 19.964C49.96 19.304 49.933 18.65 49.892 18Z" fill="white"/>
<path d="M36 24L39 29H53L56 24H36Z" fill="white"/>
<path d="M34 33H58V41H34V33Z" fill="white"/>
<path d="M47.09 33H34V41H41.738C43.913 38.642 45.724 35.946 47.09 33Z" fill="white"/>
<path d="M42 12V24H30V12L32 10H40L42 12Z" fill="#94A8B3"/>
<path d="M42 14H30V12L32 10H40L42 12V14Z" fill="white"/>
<path d="M42 23L38.8 20.6C38.296 20.222 38 19.63 38 19C38 18.37 38.296 17.778 38.8 17.4L42 15V23Z" fill="white"/>
<path d="M30 23L33.2 20.6C33.704 20.222 34 19.63 34 19C34 18.37 33.704 17.778 33.2 17.4L30 15V23Z" fill="white"/>
<path d="M40 10H32V3C32 2.448 32.448 2 33 2H39C39.552 2 40 2.448 40 3V10Z" fill="white"/>
<path d="M22 56H2V60C2 61.105 2.895 62 4 62H20C21.105 62 22 61.105 22 60V56Z" fill="#94A8B3"/>
<path d="M12 52C10.343 52 9 50.657 9 49V37C9 35.343 10.343 34 12 34C13.657 34 15 35.343 15 37V49C15 50.657 13.657 52 12 52Z" fill="white"/>
<path d="M6.75 6.99802H17.25L16.75 4.99902H7.25L6.75 6.99802Z" fill="white"/>
<path d="M12.999 16.141C12.678 16.058 12.347 16 12 16C11.653 16 11.321 16.058 11 16.141V18.998H12.999V16.141Z" fill="white"/>
<path d="M60 23H57V20C57 18.346 55.654 17 54 17H44C43.648 17 43.314 17.072 43 17.184V12C43 11.734 42.895 11.48 42.707 11.293L41 9.586V3C41 1.897 40.103 1 39 1H33C31.897 1 31 1.897 31 3V9.586L29.293 11.293C29.105 11.48 29 11.734 29 12V24V60C29 61.654 30.346 63 32 63H60C61.654 63 63 61.654 63 60V26C63 24.346 61.654 23 60 23ZM33.8 21.399C34.552 20.837 35 19.939 35 19C35 18.061 34.552 17.163 33.8 16.601L31.666 15H40.334L38.2 16.601C37.448 17.163 37 18.061 37 19C37 19.939 37.448 20.837 38.2 21.399L40.334 23H31.666L33.8 21.399ZM31 21V17L32.601 18.201C32.851 18.388 33 18.687 33 19C33 19.313 32.851 19.612 32.601 19.8L31 21ZM41 21L39.399 19.8C39.149 19.612 39 19.313 39 19C39 18.687 39.149 18.388 39.399 18.2L41 17V20V21ZM42 25H54.234L52.434 28H39.566L37.766 25H42ZM44 19H54C54.552 19 55 19.448 55 20V23H43V20C43 19.448 43.448 19 44 19ZM33 3H39V9H33V3ZM32.414 11H39.586L41 12.414V13H31V12.414L32.414 11ZM61 60C61 60.552 60.552 61 60 61H32C31.448 61 31 60.552 31 60V25H35.434L38.143 29.515C38.323 29.815 38.648 30 39 30H53C53.352 30 53.677 29.815 53.857 29.515L56.566 25H60C60.552 25 61 25.448 61 26V60Z" fill="black"/>
<path d="M58 32H34C33.447 32 33 32.447 33 33V41C33 41.553 33.447 42 34 42H58C58.553 42 59 41.553 59 41V33C59 32.447 58.553 32 58 32ZM57 40H35V34H57V40Z" fill="black"/>
<path d="M18.801 9.081L16.97 1.758C16.858 1.312 16.459 1 16 1H8C7.541 1 7.142 1.312 7.03 1.758L5.199 9.081C2.824 9.467 1 11.517 1 14V60C1 61.654 2.346 63 4 63H20C21.654 63 23 61.654 23 60V14C23 11.517 21.176 9.467 18.801 9.081ZM16.72 9H7.28L7.78 7H16.219L16.72 9ZM15.219 3L15.719 5H8.281L8.781 3H15.219ZM6 11H18C19.654 11 21 12.346 21 14V55H3V14C3 12.346 4.346 11 6 11ZM20 61H4C3.448 61 3 60.552 3 60V57H21V60C21 60.552 20.552 61 20 61Z" fill="black"/>
<path d="M12 25C14.757 25 17 22.757 17 20C17 17.243 14.757 15 12 15C9.243 15 7 17.243 7 20C7 22.757 9.243 25 12 25ZM11 17.184V19H13V17.184C14.161 17.598 15 18.698 15 20C15 21.654 13.654 23 12 23C10.346 23 9 21.654 9 20C9 18.698 9.839 17.598 11 17.184Z" fill="black"/>
<path d="M12 33C9.794 33 8 34.794 8 37V49C8 51.206 9.794 53 12 53C14.206 53 16 51.206 16 49V37C16 34.794 14.206 33 12 33ZM12 35C13.103 35 14 35.897 14 37V42H10V37C10 35.897 10.897 35 12 35ZM12 51C10.897 51 10 50.103 10 49V44H14V49C14 50.103 13.103 51 12 51Z" fill="black"/>
</svg>
