<svg width="128" height="128" viewBox="0 0 128 128" fill="none" xmlns="http://www.w3.org/2000/svg">
<path d="M67.9502 44.1396C66.6719 43.8857 65.3516 43.75 64 43.75C52.834 43.75 43.75 52.834 43.75 64C43.75 75.166 52.834 84.25 64 84.25C75.166 84.25 84.25 75.166 84.25 64C84.25 62.6484 84.1143 61.3281 83.8604 60.0498L71.9551 71.9551C69.8301 74.0801 67.0049 75.25 64 75.25C60.9951 75.25 58.1699 74.0801 56.0449 71.9551C53.9199 69.8301 52.75 67.0049 52.75 64C52.75 60.9951 53.9199 58.1699 56.0449 56.0449L67.9502 44.1396Z" fill="black"/>
<path d="M122.272 37.5469L114.204 45.6152C113.396 46.4229 112.486 47.0928 111.504 47.6123C113.281 52.752 114.25 58.2646 114.25 64C114.25 91.708 91.708 114.25 64 114.25C36.292 114.25 13.75 91.708 13.75 64C13.75 36.292 36.292 13.75 64 13.75C69.7373 13.75 75.2529 14.7197 80.3936 16.498C80.9141 15.5146 81.5791 14.6006 82.3857 13.7949L90.4531 5.72754C82.3857 2.05078 73.4287 0 64 0C28.71 0 0 28.71 0 64C0 99.29 28.71 128 64 128C99.29 128 128 99.29 128 64C128 54.5713 125.949 45.6143 122.272 37.5469Z" fill="black"/>
<path d="M79.9277 32.1621L79.2441 24.0605C74.5068 22.2451 69.3682 21.25 64 21.25C40.4277 21.25 21.25 40.4277 21.25 64C21.25 87.5723 40.4277 106.75 64 106.75C87.5723 106.75 106.75 87.5723 106.75 64C106.75 58.6318 105.755 53.4932 103.939 48.7559L95.8379 48.0723L89.8916 54.0176C91.0908 57.1172 91.75 60.4824 91.75 64C91.75 79.3018 79.3018 91.75 64 91.75C48.6982 91.75 36.25 79.3018 36.25 64C36.25 48.6982 48.6982 36.25 64 36.25C67.5176 36.25 70.8828 36.9092 73.9824 38.1084L79.9277 32.1621Z" fill="black"/>
<path d="M86.6025 22.0653L87.6943 35.0028L61.3486 61.3485C59.8838 62.8124 59.8838 65.1874 61.3486 66.6513C62.0801 67.3837 63.04 67.7499 64 67.7499C64.96 67.7499 65.9199 67.3837 66.6514 66.6513L92.9971 40.3056L105.935 41.3964C106.04 41.4052 106.145 41.4101 106.25 41.4101C107.24 41.4101 108.195 41.0175 108.901 40.3114L124.811 24.4013C125.843 23.37 126.183 21.8329 125.682 20.4618C125.18 19.0907 123.929 18.1356 122.475 18.0136L110.957 17.0419L109.986 5.52529C109.863 4.07021 108.908 2.81924 107.538 2.31826C106.167 1.81631 104.63 2.15713 103.598 3.18838L87.6885 19.0985C86.9072 19.8798 86.5098 20.9647 86.6025 22.0653Z" fill="black"/>
</svg>
