<svg width="64" height="64" viewBox="0 0 64 64" fill="none" xmlns="http://www.w3.org/2000/svg">
<path d="M25 21.75V30C25 30.2652 24.8946 30.5196 24.7071 30.7071C24.5196 30.8946 24.2652 31 24 31H10C9.73478 31 9.48043 30.8946 9.29289 30.7071C9.10536 30.5196 9 30.2652 9 30V19H5.75C5.02065 19 4.32118 19.2897 3.80546 19.8055C3.28973 20.3212 3 21.0207 3 21.75V59.25C3 59.7141 3.18437 60.1592 3.51256 60.4874C3.84075 60.8156 4.28587 61 4.75 61H29.25C29.7141 61 30.1592 60.8156 30.4874 60.4874C30.8156 60.1592 31 59.7141 31 59.25V19H27.75C27.0207 19 26.3212 19.2897 25.8055 19.8055C25.2897 20.3212 25 21.0207 25 21.75Z" fill="#94A8B3"/>
<path d="M9 19H10.5C11.163 19 11.7989 19.2634 12.2678 19.7322C12.7366 20.2011 13 20.837 13 21.5V31H10C9.73478 31 9.48043 30.8946 9.29289 30.7071C9.10536 30.5196 9 30.2652 9 30V19Z" fill="white"/>
<path d="M30 19H31V35H30V19Z" fill="white"/>
<path d="M56.6575 61H47.2575C46.6238 61 45.9981 60.8583 45.4262 60.5853C44.8543 60.3122 44.3508 59.9147 43.9524 59.4219C43.554 58.9291 43.2708 58.3534 43.1236 57.737C42.9764 57.1206 42.969 56.4791 43.1017 55.8595L43.4931 54.4455C44.484 50.8652 44.6207 47.1023 43.8921 43.4595L43.6875 42.4362C43.2304 40.151 43.0001 37.8262 43 35.4956V26.3146C43 25.4453 43.1564 24.583 43.4616 23.769L49 9H55L60.5384 23.769C60.8436 24.583 61 25.4453 61 26.3146V35.8089C61 37.932 60.809 40.0508 60.4291 42.1396L60.041 44.275C59.3572 48.0361 59.5919 51.9066 60.7251 55.5575L60.7988 55.795C60.9424 56.4179 60.9437 57.0652 60.8025 57.6887C60.6613 58.3122 60.3812 58.8958 59.9832 59.3961C59.5852 59.8963 59.0794 60.3004 58.5036 60.5781C57.9278 60.8558 57.2968 61 56.6575 61Z" fill="white"/>
<path d="M43 25H61V38H43V25Z" fill="white"/>
<path d="M48 3H56V9H48V3Z" fill="white"/>
<path d="M57 54.9998C56.7901 54.9997 56.5856 54.9336 56.4153 54.8109C56.2451 54.6881 56.1178 54.5149 56.0515 54.3158L55.7544 53.4245C54.5817 49.9012 54.694 46.0765 56.0716 42.6282C56.1701 42.3819 56.3624 42.1849 56.6062 42.0804C56.8499 41.9759 57.1252 41.9725 57.3715 42.071C57.6177 42.1695 57.8148 42.3618 57.9193 42.6056C58.0237 42.8494 58.0271 43.1246 57.9286 43.3709C56.7265 46.38 56.6284 49.7176 57.6517 52.7921L57.9487 53.6833C57.9987 53.8336 58.0123 53.9937 57.9884 54.1503C57.9644 54.3069 57.9036 54.4556 57.811 54.5841C57.7184 54.7127 57.5965 54.8174 57.4555 54.8896C57.3145 54.9619 57.1584 54.9996 57 54.9998Z" fill="white"/>
<path d="M55.4 21.9998C55.2001 21.9998 55.0047 21.9399 54.8391 21.8278C54.6735 21.7157 54.5453 21.5566 54.4711 21.3709L54.0711 20.3709C53.9726 20.1246 53.976 19.8494 54.0805 19.6056C54.185 19.3618 54.382 19.1695 54.6283 19.071C54.8745 18.9725 55.1498 18.9759 55.3936 19.0804C55.6374 19.1849 55.8296 19.3819 55.9281 19.6282L56.3281 20.6282C56.3889 20.7799 56.4115 20.9442 56.394 21.1066C56.3766 21.2691 56.3195 21.4248 56.228 21.5602C56.1364 21.6955 56.013 21.8064 55.8687 21.883C55.7243 21.9596 55.5634 21.9997 55.4 21.9998Z" fill="white"/>
<path d="M53.8 17.9998C53.6001 17.9998 53.4047 17.9399 53.2391 17.8278C53.0736 17.7157 52.9454 17.5566 52.8712 17.3709L52.0712 15.3709C52.0225 15.249 51.9982 15.1186 51.9998 14.9873C52.0014 14.856 52.0289 14.7263 52.0806 14.6056C52.1323 14.4849 52.2073 14.3755 52.3013 14.2838C52.3953 14.1921 52.5064 14.1198 52.6284 14.071C52.7503 14.0223 52.8806 13.998 53.012 13.9996C53.1433 14.0012 53.273 14.0286 53.3937 14.0804C53.5144 14.1321 53.6237 14.2071 53.7154 14.3011C53.8072 14.3951 53.8795 14.5062 53.9282 14.6282L54.7282 16.6281C54.789 16.7799 54.8116 16.9442 54.7941 17.1067C54.7767 17.2692 54.7196 17.4249 54.628 17.5602C54.5364 17.6956 54.4131 17.8064 54.2687 17.883C54.1244 17.9597 53.9634 17.9997 53.8 17.9998Z" fill="white"/>
<path d="M7 48C6.73478 48 6.48043 47.8946 6.29289 47.7071C6.10536 47.5196 6 47.2652 6 47V42C6 41.7348 6.10536 41.4804 6.29289 41.2929C6.48043 41.1054 6.73478 41 7 41C7.26522 41 7.51957 41.1054 7.70711 41.2929C7.89464 41.4804 8 41.7348 8 42V47C8 47.2652 7.89464 47.5196 7.70711 47.7071C7.51957 47.8946 7.26522 48 7 48Z" fill="white"/>
<path d="M7 53C6.73478 53 6.48043 52.8946 6.29289 52.7071C6.10536 52.5196 6 52.2652 6 52V51C6 50.7348 6.10536 50.4804 6.29289 50.2929C6.48043 50.1054 6.73478 50 7 50C7.26522 50 7.51957 50.1054 7.70711 50.2929C7.89464 50.4804 8 50.7348 8 51V52C8 52.2652 7.89464 52.5196 7.70711 52.7071C7.51957 52.8946 7.26522 53 7 53Z" fill="white"/>
<path d="M41 22H35L31.3355 28.5961C30.4596 30.1727 30 31.9465 30 33.75C30 34.0815 30.1317 34.3995 30.3661 34.6339C30.6005 34.8683 30.9185 35 31.25 35H44.75C45.0815 35 45.3995 34.8683 45.6339 34.6339C45.8683 34.3995 46 34.0815 46 33.75C46 31.9465 45.5404 30.1727 44.6645 28.5961L41 22Z" fill="white"/>
<path d="M45.975 34C45.917 34.2822 45.7635 34.5357 45.5403 34.7178C45.3172 34.9 45.0381 34.9997 44.75 35H31.25C30.9619 34.9998 30.6827 34.9002 30.4595 34.718C30.2363 34.5359 30.0828 34.2822 30.025 34H45.975Z" fill="white"/>
<path d="M35 16H41C41.2652 16 41.5196 16.1054 41.7071 16.2929C41.8946 16.4804 42 16.7348 42 17V22H34V17C34 16.7348 34.1054 16.4804 34.2929 16.2929C34.4804 16.1054 34.7348 16 35 16Z" fill="white"/>
<path d="M44.75 47H31.25C30.5596 47 30 47.5596 30 48.25V51.75C30 52.4404 30.5596 53 31.25 53H44.75C45.4404 53 46 52.4404 46 51.75V48.25C46 47.5596 45.4404 47 44.75 47Z" fill="white"/>
<path d="M44.75 41H31.25C30.5596 41 30 41.5596 30 42.25V45.75C30 46.4404 30.5596 47 31.25 47H44.75C45.4404 47 46 46.4404 46 45.75V42.25C46 41.5596 45.4404 41 44.75 41Z" fill="white"/>
<path d="M44.75 35H31.25C30.5596 35 30 35.5596 30 36.25V39.75C30 40.4404 30.5596 41 31.25 41H44.75C45.4404 41 46 40.4404 46 39.75V36.25C46 35.5596 45.4404 35 44.75 35Z" fill="white"/>
<path d="M43.5 61H32.5C31.837 61 31.2011 60.7366 30.7322 60.2678C30.2634 59.7989 30 59.163 30 58.5V54.25C30 53.9185 30.1317 53.6005 30.3661 53.3661C30.6005 53.1317 30.9185 53 31.25 53H44.75C45.0815 53 45.3995 53.1317 45.6339 53.3661C45.8683 53.6005 46 53.9185 46 54.25V58.5C46 59.163 45.7366 59.7989 45.2678 60.2678C44.7989 60.7366 44.163 61 43.5 61Z" fill="white"/>
<path d="M45.975 34C45.917 34.2822 45.7635 34.5357 45.5403 34.7178C45.3172 34.9 45.0381 34.9997 44.75 35H31.25C30.9619 34.9998 30.6827 34.9002 30.4595 34.718C30.2363 34.5359 30.0828 34.2822 30.025 34H45.975Z" fill="white"/>
<path d="M45.95 40C45.892 40.2822 45.7385 40.5357 45.5153 40.7178C45.2922 40.9 45.0131 40.9997 44.725 41H31.225C30.9369 40.9998 30.6577 40.9002 30.4345 40.718C30.2113 40.5359 30.0579 40.2822 30 40H45.95Z" fill="white"/>
<path d="M46 46C45.942 46.2822 45.7885 46.5357 45.5653 46.7178C45.3422 46.9 45.063 46.9997 44.775 47H31.275C30.9869 46.9998 30.7077 46.9002 30.4845 46.718C30.2613 46.5359 30.1078 46.2822 30.05 46H46Z" fill="white"/>
<path d="M46 52C45.942 52.2822 45.7885 52.5357 45.5653 52.7178C45.3422 52.9 45.063 52.9997 44.775 53H31.275C30.9869 52.9998 30.7077 52.9002 30.4845 52.718C30.2613 52.5359 30.1078 52.2822 30.05 52H46Z" fill="white"/>
<path d="M34 21H42V22H34V21Z" fill="white"/>
<path d="M31 61H19L17 43H33L31 61Z" fill="white"/>
<path d="M17 39L18 35H32L33 39H17Z" fill="white"/>
<path d="M25 54C26.6569 54 28 52.6569 28 51C28 49.3431 26.6569 48 25 48C23.3431 48 22 49.3431 22 51C22 52.6569 23.3431 54 25 54Z" fill="white"/>
<path d="M16 39H34V43H16V39Z" fill="white"/>
<path d="M25 55C25.7911 55 26.5645 54.7654 27.2223 54.3259C27.8801 53.8864 28.3928 53.2616 28.6955 52.5307C28.9983 51.7998 29.0775 50.9956 28.9231 50.2196C28.7688 49.4437 28.3878 48.731 27.8284 48.1716C27.269 47.6122 26.5563 47.2312 25.7804 47.0769C25.0044 46.9225 24.2002 47.0017 23.4693 47.3045C22.7384 47.6072 22.1136 48.1199 21.6741 48.7777C21.2346 49.4355 21 50.2089 21 51C21.0012 52.0605 21.423 53.0772 22.1729 53.8271C22.9228 54.577 23.9395 54.9988 25 55ZM25 49C25.3956 49 25.7822 49.1173 26.1111 49.3371C26.44 49.5568 26.6964 49.8692 26.8478 50.2346C26.9991 50.6001 27.0387 51.0022 26.9616 51.3902C26.8844 51.7781 26.6939 52.1345 26.4142 52.4142C26.1345 52.6939 25.7781 52.8844 25.3902 52.9616C25.0022 53.0387 24.6001 52.9991 24.2346 52.8478C23.8692 52.6964 23.5568 52.44 23.3371 52.1111C23.1173 51.7822 23 51.3956 23 51C23.0006 50.4698 23.2115 49.9614 23.5865 49.5865C23.9614 49.2115 24.4698 49.0006 25 49Z" fill="black"/>
<path d="M61.475 23.4179L56.4099 9.9115C56.5856 9.83255 56.7347 9.70452 56.8394 9.54282C56.9441 9.38112 56.9999 9.19263 57 9V3C57 2.73478 56.8946 2.48043 56.7071 2.29289C56.5196 2.10536 56.2652 2 56 2H48C47.7348 2 47.4804 2.10536 47.2929 2.29289C47.1054 2.48043 47 2.73478 47 3V9C47.0001 9.19263 47.0559 9.38112 47.1606 9.54282C47.2653 9.70452 47.4144 9.83255 47.5901 9.9115L42.9759 22.2165C42.9917 22.1454 42.9998 22.0728 43 22V17C42.9994 16.4698 42.7885 15.9614 42.4135 15.5865C42.0386 15.2115 41.5302 15.0006 41 15H35C34.4698 15.0006 33.9614 15.2115 33.5865 15.5865C33.2115 15.9614 33.0006 16.4698 33 17V22C33 22.1569 33.037 22.3116 33.108 22.4515C33.1791 22.5914 33.2821 22.7125 33.4087 22.8051L32 25.3409V19C32 18.7348 31.8946 18.4804 31.7071 18.2929C31.5196 18.1054 31.2652 18 31 18H27.75C26.7558 18.0011 25.8026 18.3966 25.0996 19.0996C24.3966 19.8026 24.0011 20.7558 24 21.75V30H14V21.5C13.9989 20.5721 13.6299 19.6824 12.9737 19.0263C12.3176 18.3701 11.4279 18.0011 10.5 18H5.75C4.75578 18.0011 3.80261 18.3966 3.09959 19.0996C2.39657 19.8026 2.00112 20.7558 2 21.75V59.25C2.00083 59.9791 2.29082 60.6781 2.80637 61.1936C3.32192 61.7092 4.02091 61.9992 4.75 62H31C31.1812 62.0001 31.359 61.9507 31.5142 61.8573C31.8344 61.9515 32.1663 61.9996 32.5 62H43.5C44.0859 62.0007 44.6625 61.8533 45.1763 61.5716C45.8331 61.856 46.5415 62.0019 47.2573 62H56.6572C57.447 62 58.2266 61.8218 58.938 61.4787C59.6494 61.1357 60.2741 60.6365 60.7658 60.0184C61.2575 59.4004 61.6034 58.6793 61.7778 57.909C61.9521 57.1388 61.9505 56.3391 61.7729 55.5695C61.7673 55.5454 61.7604 55.5215 61.7535 55.4979L61.6799 55.261C60.5981 51.7632 60.3734 48.0566 61.025 44.4538L61.4125 42.3186C61.6459 41.0307 61.8098 39.7311 61.9035 38.4255C61.9644 38.2962 61.9096 24.5275 61.7612 24.353C61.6844 24.0359 61.5888 23.7236 61.475 23.4179ZM49 4H55V8H49V4ZM49.693 10H54.307L59.557 24H44.443L49.693 10ZM35 17H41V21H35V17ZM31.2192 36L31.7192 38H18.2808L18.7808 36H31.2192ZM33 40V42H17V40H33ZM10 20H10.5C10.8977 20.0004 11.279 20.1586 11.5602 20.4398C11.8414 20.721 11.9996 21.1023 12 21.5V30H10V20ZM4.75 60C4.55115 59.9998 4.3605 59.9207 4.21989 59.7801C4.07928 59.6395 4.0002 59.4489 4 59.25V21.75C4.0005 21.286 4.18503 20.8412 4.51311 20.5131C4.84119 20.185 5.28602 20.0005 5.75 20H8V30C8.00063 30.5302 8.21154 31.0386 8.58648 31.4135C8.96142 31.7885 9.46976 31.9994 10 32H24C24.5302 31.9994 25.0386 31.7885 25.4135 31.4135C25.7885 31.0386 25.9994 30.5302 26 30V21.75C26.0005 21.286 26.185 20.8412 26.5131 20.5131C26.8412 20.185 27.286 20.0005 27.75 20H30V34H18C17.777 34 17.5604 34.0746 17.3846 34.2118C17.2088 34.3491 17.084 34.5411 17.0299 34.7575L16.2192 38H16C15.7348 38 15.4804 38.1054 15.2929 38.2929C15.1054 38.4804 15 38.7348 15 39V43C15 43.2652 15.1054 43.5196 15.2929 43.7071C15.4804 43.8946 15.7348 44 16 44H16.105L17.8827 60H4.75ZM30.105 60H19.895L18.1173 44H31.8827L30.105 60ZM45 58.5C44.9996 58.8977 44.8414 59.279 44.5602 59.5602C44.279 59.8414 43.8977 59.9996 43.5 60H32.5C32.3727 59.9996 32.2459 59.983 32.1227 59.9506L32.7839 54H44.75C44.8163 54 44.8799 54.0263 44.9268 54.0732C44.9737 54.1201 45 54.1837 45 54.25V58.5ZM45 51.75C45 51.8163 44.9737 51.8799 44.9268 51.9268C44.8799 51.9737 44.8163 52 44.75 52H33.0061L33.4506 48H44.75C44.8163 48 44.8799 48.0263 44.9268 48.0732C44.9737 48.1201 45 48.1837 45 48.25V51.75ZM45 45.75C45 45.8163 44.9737 45.8799 44.9268 45.9268C44.8799 45.9737 44.8163 46 44.75 46H33.6729L33.895 44H34C34.2652 44 34.5196 43.8946 34.7071 43.7071C34.8946 43.5196 35 43.2652 35 43V42H44.75C44.8163 42 44.8799 42.0263 44.9268 42.0732C44.9737 42.1201 45 42.1837 45 42.25V45.75ZM45 39.75C45 39.8163 44.9737 39.8799 44.9268 39.9268C44.8799 39.9737 44.8163 40 44.75 40H35V39C35 38.7348 34.8946 38.4804 34.7071 38.2929C34.5196 38.1054 34.2652 38 34 38H33.7808L33.2808 36H44.75C44.8163 36 44.8799 36.0263 44.9268 36.0732C44.9737 36.1201 45 36.1837 45 36.25V39.75ZM44.75 34H32V29.4831C32.0671 29.3476 32.1366 29.2131 32.2096 29.0818L35.5884 23H40.4116L43.7904 29.0818C44.5827 30.5102 44.999 32.1165 45 33.75C45 33.8163 44.9737 33.8799 44.9268 33.9268C44.8799 33.9737 44.8163 34 44.75 34ZM59.2009 58.7733C58.8974 59.1568 58.5107 59.4665 58.0702 59.679C57.6296 59.8915 57.1466 60.0012 56.6575 60H47.2575C47.0654 60 46.8736 59.9833 46.6844 59.95C46.8927 59.495 47.0003 59.0004 47 58.5V54.25C47.0004 53.8047 46.8679 53.3695 46.6195 53C46.8679 52.6305 47.0004 52.1953 47 51.75V48.25C47.0004 47.8047 46.8679 47.3695 46.6195 47C46.8679 46.6305 47.0004 46.1953 47 45.75V42.25C47.0004 41.8047 46.8679 41.3695 46.6195 41C46.8679 40.6305 47.0004 40.1953 47 39.75V39H59.85C59.7575 39.9933 59.6229 40.9824 59.445 41.9609L59.0569 44.096C58.348 48.0157 58.5924 52.0484 59.7694 55.8539L59.8319 56.0531C59.9367 56.5249 59.9344 57.0141 59.8252 57.4848C59.716 57.9556 59.5027 58.3958 59.2009 58.7733ZM59.9771 37H47V36.25C47.0004 35.8047 46.8679 35.3695 46.6195 35C46.8679 34.6305 47.0004 34.1953 47 33.75C46.9988 31.7766 46.4959 29.836 45.5386 28.1104L44.3661 26H59.9911C59.9967 26.1046 59.9909 36.6027 59.9771 37Z" fill="black"/>
<path d="M7 41C6.73478 41 6.48043 41.1054 6.29289 41.2929C6.10536 41.4804 6 41.7348 6 42V47C6 47.2652 6.10536 47.5196 6.29289 47.7071C6.48043 47.8946 6.73478 48 7 48C7.26522 48 7.51957 47.8946 7.70711 47.7071C7.89464 47.5196 8 47.2652 8 47V42C8 41.7348 7.89464 41.4804 7.70711 41.2929C7.51957 41.1054 7.26522 41 7 41Z" fill="black"/>
<path d="M7 50C6.73478 50 6.48043 50.1054 6.29289 50.2929C6.10536 50.4804 6 50.7348 6 51V52C6 52.2652 6.10536 52.5196 6.29289 52.7071C6.48043 52.8946 6.73478 53 7 53C7.26522 53 7.51957 52.8946 7.70711 52.7071C7.89464 52.5196 8 52.2652 8 52V51C8 50.7348 7.89464 50.4804 7.70711 50.2929C7.51957 50.1054 7.26522 50 7 50Z" fill="black"/>
<path d="M57.3714 42.0711C57.2495 42.0223 57.1191 41.998 56.9878 41.9996C56.8564 42.0012 56.7267 42.0286 56.606 42.0804C56.4853 42.1321 56.3759 42.2071 56.2842 42.3011C56.1925 42.3951 56.1202 42.5062 56.0714 42.6282C54.6938 46.0766 54.5815 49.9013 55.7541 53.4246L56.0513 54.3158C56.1371 54.565 56.3177 54.7702 56.554 54.8869C56.7903 55.0036 57.0631 55.0223 57.3131 54.9389C57.563 54.8556 57.77 54.6769 57.889 54.4418C58.008 54.2067 58.0294 53.9341 57.9485 53.6833L57.6515 52.7922C56.6282 49.7177 56.7263 46.3801 57.9284 43.3709C58.0269 43.1247 58.0236 42.8494 57.9191 42.6057C57.8146 42.3619 57.6176 42.1696 57.3714 42.0711Z" fill="black"/>
<path d="M56.3285 20.6286L55.9285 19.6286C55.83 19.3824 55.6377 19.1853 55.3939 19.0809C55.1502 18.9764 54.8749 18.973 54.6286 19.0715C54.3824 19.17 54.1853 19.3623 54.0809 19.6061C53.9764 19.8498 53.973 20.1251 54.0715 20.3714L54.4715 21.3714C54.57 21.6176 54.7623 21.8147 55.0061 21.9192C55.2498 22.0236 55.5251 22.027 55.7714 21.9285C56.0176 21.83 56.2147 21.6377 56.3191 21.394C56.4236 21.1502 56.427 20.8749 56.3285 20.6286Z" fill="black"/>
<path d="M54.7285 16.6286L53.9285 14.6286C53.83 14.3824 53.6377 14.1853 53.3939 14.0809C53.1502 13.9764 52.8749 13.973 52.6286 14.0715C52.3824 14.17 52.1853 14.3623 52.0809 14.6061C51.9764 14.8498 51.973 15.1251 52.0715 15.3714L52.8715 17.3714C52.97 17.6176 53.1623 17.8147 53.406 17.9192C53.6498 18.0237 53.9251 18.027 54.1714 17.9285C54.4176 17.83 54.6147 17.6377 54.7191 17.394C54.8236 17.1502 54.827 16.8749 54.7285 16.6286Z" fill="black"/>
</svg>
