<svg width="64" height="64" viewBox="0 0 64 64" fill="none" xmlns="http://www.w3.org/2000/svg">
<path d="M25 31H37V43H25V31Z" fill="white"/>
<path d="M3 31H15V43H3V31Z" fill="white"/>
<path d="M15 27H5L3 31H15V27Z" fill="white"/>
<path d="M25 27H35L37 31H25V27Z" fill="white"/>
<path d="M15 23H25V43H15V23Z" fill="white"/>
<path d="M20 30C21.1046 30 22 29.1046 22 28C22 26.8954 21.1046 26 20 26C18.8954 26 18 26.8954 18 28C18 29.1046 18.8954 30 20 30Z" fill="white"/>
<path d="M15 23L20 17L25 23H15Z" fill="white"/>
<path d="M15 39H25V43H15V39Z" fill="white"/>
<path d="M15 33H25V39H15V33Z" fill="white"/>
<path d="M3 31H15V33H3V31Z" fill="white"/>
<path d="M25 31H37V33H25V31Z" fill="white"/>
<path d="M17.375 39H25V33H24.125L17.375 39Z" fill="white"/>
<path d="M25 27H27V31H25V27Z" fill="white"/>
<path d="M20 17L18.9496 18.2605L22.2307 23H25L20 17Z" fill="white"/>
<path d="M20 12H25V16H20V12Z" fill="white"/>
<path d="M25 31H27V43H25V31Z" fill="white"/>
<path d="M25.0175 41V34C25.0171 33.212 25.172 32.4316 25.4734 31.7034C25.7748 30.9753 26.2167 30.3137 26.774 29.7564C27.3312 29.1992 27.9928 28.7573 28.7209 28.4559C29.4491 28.1545 30.2295 27.9996 31.0175 28H43C44.5913 28 46.1174 28.6321 47.2427 29.7574C48.3679 30.8826 49 32.4087 49 34V41H25.0175Z" fill="white"/>
<path d="M45 34.2V45H29V34.2L30 34L32 33V26H42V33L44 34L45 34.2Z" fill="white"/>
<path d="M42 29.7897V26H32V29.7897C33.5467 30.5851 35.2608 31 37 31C38.7392 31 40.4533 30.5851 42 29.7897Z" fill="white"/>
<path d="M61 56.72V56.8C61.0002 57.7712 60.6639 58.7124 60.0483 59.4635C59.4326 60.2146 58.5757 60.7291 57.6234 60.9195C56.6711 61.1099 55.6823 60.9644 54.8252 60.5078C53.9681 60.0511 53.2957 59.3116 52.9225 58.415L49 49V61H25V49L21.0775 58.415C20.7123 59.2915 20.0611 60.0185 19.2298 60.4775C18.3985 60.9365 17.4363 61.1004 16.5 60.9425C14.465 60.6038 13 58.7963 13 56.7338V56.7138C13.0001 56.2413 13.08 55.7722 13.2362 55.3263L18.9737 38.9338C19.2865 38.0401 19.8266 37.2433 20.5409 36.6219C21.2553 36.0005 22.1192 35.5759 23.0475 35.39L25 35L30 34L32 33V33.9012C32 36.705 34.2938 39.0525 37.0975 38.9987C38.4064 38.9732 39.6531 38.4354 40.5697 37.5007C41.4864 36.566 41.9999 35.3091 42 34V33L44 34L49 35L50.8988 35.38C51.8406 35.5687 52.716 36.0028 53.4362 36.6385C54.1564 37.2742 54.6958 38.0888 55 39L60.76 55.3213C60.9188 55.7705 61 56.2435 61 56.72Z" fill="#94A8B3"/>
<path d="M61 56.7201V56.8001C61.0002 57.7712 60.6639 58.7125 60.0483 59.4635C59.4326 60.2146 58.5757 60.7292 57.6234 60.9196C56.6711 61.11 55.6823 60.9645 54.8252 60.5078C53.9681 60.0512 53.2957 59.3117 52.9225 58.4151L49 49.0001V61.0001H28.9637C38.915 56.3151 47.3212 50.1813 54.3875 37.7363C54.6456 38.1293 54.8515 38.5541 55 39.0001L60.76 55.3213C60.9188 55.7706 61 56.2436 61 56.7201Z" fill="#94A8B3"/>
<path d="M16.6763 45.4971L24.4475 50.3271L21.0775 58.4146C20.7043 59.3112 20.0319 60.0507 19.1748 60.5073C18.3177 60.964 17.3289 61.1095 16.3766 60.9191C15.4243 60.7287 14.5674 60.2141 13.9517 59.463C13.3361 58.7119 12.9998 57.7707 13 56.7996V56.7133C13.0001 56.2408 13.08 55.7717 13.2363 55.3258L16.6763 45.4971Z" fill="white"/>
<path d="M61 56.7198V56.7998C61.0002 57.7709 60.6639 58.7121 60.0483 59.4632C59.4327 60.2143 58.5758 60.7289 57.6235 60.9193C56.6712 61.1097 55.6823 60.9642 54.8252 60.5075C53.9681 60.0509 53.2957 59.3114 52.9225 58.4148L49.385 49.9248L57.2425 45.3535L60.76 55.321C60.9188 55.7703 61 56.2433 61 56.7198Z" fill="white"/>
<path d="M46 14V20C45.9998 22.3869 45.0515 24.676 43.3637 26.3637C41.676 28.0515 39.3869 28.9998 37 29C36.5881 29.0002 36.1767 28.9718 35.7687 28.915H35.7675C33.6146 28.6172 31.6422 27.5505 30.2145 25.9119C28.7868 24.2732 28.0002 22.1734 28 20V14C28 11.6131 28.9482 9.32387 30.636 7.63604C32.3239 5.94821 34.6131 5 37 5C39.3869 5 41.6761 5.94821 43.364 7.63604C45.0518 9.32387 46 11.6131 46 14Z" fill="white"/>
<path d="M46 13.9998V19.9998C45.9998 22.3867 45.0515 24.6758 43.3637 26.3636C41.6759 28.0513 39.3869 28.9996 37 28.9998C36.5881 29 36.1767 28.9716 35.7687 28.9148C37.6357 28.0167 39.211 26.6095 40.3134 24.8554C41.4158 23.1013 42.0004 21.0716 42 18.9998V12.9998C42.0019 11.555 41.7182 10.1241 41.1652 8.78936C40.6122 7.4546 39.8007 6.24235 38.7775 5.22232C38.7575 5.20232 38.7375 5.18232 38.7175 5.16357C40.7678 5.56315 42.6155 6.66313 43.9441 8.27513C45.2726 9.88714 45.9994 11.9109 46 13.9998Z" fill="white"/>
<path d="M46 9V14L43 10H31L28 14V9C28 7.4087 28.6321 5.88258 29.7574 4.75736C30.8826 3.63214 32.4087 3 34 3H40C41.5913 3 43.1174 3.63214 44.2426 4.75736C45.3679 5.88258 46 7.4087 46 9Z" fill="white"/>
<path d="M27 14H28V20H27C26.2044 20 25.4413 19.6839 24.8787 19.1213C24.3161 18.5587 24 17.7956 24 17C24 16.2044 24.3161 15.4413 24.8787 14.8787C25.4413 14.3161 26.2044 14 27 14Z" fill="white"/>
<path d="M47 20H46V14H47C47.7956 14 48.5587 14.3161 49.1213 14.8787C49.6839 15.4413 50 16.2044 50 17C50 17.7956 49.6839 18.5587 49.1213 19.1213C48.5587 19.6839 47.7956 20 47 20Z" fill="white"/>
<path d="M25 35L30 34V61H25V35Z" fill="white"/>
<path d="M49 35V61H44V34L49 35Z" fill="white"/>
<path d="M13 57.2984C13 57.7845 13.0957 58.2658 13.2817 58.7149C13.4677 59.164 13.7404 59.5721 14.0841 59.9158C14.4278 60.2595 14.8359 60.5322 15.285 60.7182C15.7341 60.9043 16.2154 61 16.7015 61H17.5322C18.263 61 18.9775 60.7837 19.5855 60.3783C20.1936 59.973 20.668 59.3967 20.9491 58.7221L25 49H31V41H25L13.8111 54.9861C13.286 55.6424 13 56.4579 13 57.2984Z" fill="white"/>
<path d="M43 41V49H49L53.0509 58.7221C53.332 59.3967 53.8064 59.973 54.4145 60.3783C55.0225 60.7837 55.737 61 56.4678 61H57.2985C57.7846 61 58.2659 60.9043 58.715 60.7182C59.1641 60.5322 59.5721 60.2596 59.9159 59.9159C60.2596 59.5721 60.5322 59.1641 60.7182 58.715C60.9043 58.2659 61 57.7846 61 57.2985C61.0001 56.4579 60.714 55.6423 60.1889 54.986L49 41H43Z" fill="white"/>
<path d="M46 9V14L43 10H41.585C41.1492 8.46974 40.3876 7.05185 39.3524 5.84359C38.3172 4.63533 37.0329 3.66528 35.5875 3H40C41.5913 3 43.1174 3.63214 44.2427 4.75736C45.3679 5.88258 46 7.4087 46 9Z" fill="white"/>
<path d="M6 34H8V36H6V34Z" fill="black"/>
<path d="M10 34H12V36H10V34Z" fill="black"/>
<path d="M6 38H8V40H6V38Z" fill="black"/>
<path d="M10 38H12V40H10V38Z" fill="black"/>
<path d="M20 30C21.1046 30 22 29.1046 22 28C22 26.8954 21.1046 26 20 26C18.8954 26 18 26.8954 18 28C18 29.1046 18.8954 30 20 30Z" fill="black"/>
<path d="M32.4922 15C32.1955 14.9996 31.9053 15.0872 31.6583 15.2518C31.4114 15.4163 31.2188 15.6505 31.1049 15.9245C30.991 16.1986 30.961 16.5002 31.0187 16.7913C31.0763 17.0824 31.219 17.3499 31.4287 17.5599C31.6384 17.7699 31.9057 17.913 32.1967 17.971C32.4877 18.0291 32.7894 17.9995 33.0636 17.886C33.3379 17.7726 33.5723 17.5803 33.7372 17.3336C33.9021 17.0869 33.9901 16.7968 33.9901 16.5C33.9901 16.1025 33.8324 15.7213 33.5515 15.4401C33.2707 15.1588 32.8897 15.0006 32.4922 15Z" fill="black"/>
<path d="M41.4521 15C41.1554 14.9996 40.8652 15.0872 40.6182 15.2518C40.3712 15.4163 40.1787 15.6505 40.0648 15.9245C39.9509 16.1986 39.9209 16.5002 39.9786 16.7913C40.0362 17.0824 40.1789 17.3499 40.3886 17.5599C40.5983 17.7699 40.8656 17.913 41.1566 17.971C41.4476 18.0291 41.7493 17.9995 42.0235 17.886C42.2978 17.7726 42.5322 17.5803 42.6971 17.3336C42.862 17.0869 42.95 16.7968 42.95 16.5C42.95 16.1025 42.7923 15.7213 42.5114 15.4401C42.2306 15.1588 41.8496 15.0006 41.4521 15Z" fill="black"/>
<path d="M36.0928 20.9998H33.9856V22.9998H36.0928C37.5012 23.0017 38.9021 22.795 40.25 22.3865L39.6677 20.4731C38.5086 20.8241 37.3039 21.0016 36.0928 20.9998Z" fill="black"/>
<path d="M61.7036 54.9886L55.9458 38.675C55.5838 37.5993 54.9451 36.638 54.0937 35.8875C53.2423 35.1371 52.2083 34.624 51.0957 34.4L50 34.1802V34C49.9979 32.3279 49.3982 30.7115 48.3091 29.4427C47.2201 28.1738 45.7134 27.336 44.0609 27.0804C45.6991 25.4494 46.7203 23.3002 46.95 21H47C48.0609 21 49.0783 20.5786 49.8284 19.8284C50.5786 19.0783 51 18.0609 51 17C51 15.9391 50.5786 14.9217 49.8284 14.1716C49.0783 13.4214 48.0609 13 47 13V9C46.9979 7.14412 46.2597 5.36486 44.9474 4.05255C43.6351 2.74025 41.8559 2.00208 40 2H34C32.1441 2.00208 30.3649 2.74025 29.0526 4.05255C27.7403 5.36486 27.0021 7.14412 27 9V13C26.6627 12.9998 26.3266 13.0423 26 13.1266V12C26 11.7348 25.8946 11.4804 25.7071 11.2929C25.5196 11.1054 25.2652 11 25 11H20C19.7348 11 19.4804 11.1054 19.2929 11.2929C19.1054 11.4804 19 11.7348 19 12V16.6375C19 16.6375 14.2317 22.3594 14.2312 22.3603C14.0814 22.5397 13.9996 22.7662 14 23V26H5C4.8143 26 4.63227 26.0517 4.47431 26.1493C4.31634 26.247 4.18868 26.3867 4.10563 26.5527L2.10562 30.5527C2.1048 30.5548 2.1041 30.557 2.1035 30.5591C2.03553 30.6962 2.00011 30.847 2 31V43C2 43.2652 2.10536 43.5196 2.29289 43.7071C2.48043 43.8946 2.73478 44 3 44H16.1406L12.292 54.9959C11.6536 56.8196 11.9196 59.0556 13.2598 60.4974C15.6446 63.0629 20.5042 62.391 21.8722 59.1068L24 54V61C24 61.2652 24.1054 61.5196 24.2929 61.7071C24.4804 61.8946 24.7348 62 25 62H49C49.2652 62 49.5196 61.8946 49.7071 61.7071C49.8946 61.5196 50 61.2652 50 61V54L52.1278 59.1068C53.1652 61.598 56.1359 62.5231 58.5989 61.7925C61.4 60.9614 62.6346 57.628 61.7036 54.9886ZM58.0911 50.7636L55.575 47.6175L56.7356 46.9211L58.0911 50.7636ZM54.0513 39.3162C54.0532 39.3218 54.055 39.3272 54.057 39.3329L56.0559 44.9963L54.3138 46.0415L50 40.6493V36.2199L50.7031 36.3605C51.4718 36.5152 52.1861 36.87 52.774 37.3889C53.3618 37.9079 53.8024 38.5727 54.0513 39.3162ZM43 60H31V50C31.2652 50 31.5196 49.8946 31.7071 49.7071C31.8946 49.5196 32 49.2652 32 49V41C32 40.7348 31.8946 40.4804 31.7071 40.2929C31.5196 40.1054 31.2652 40 31 40V34.618L31.0421 34.597C31.2066 35.9951 31.8426 37.2953 32.8454 38.2832C33.9501 39.3817 35.4444 39.9988 37.0023 40C37.0397 40 37.0781 40 37.1161 39.999C38.5805 39.9632 39.9818 39.3959 41.0588 38.4031C42.1358 37.4102 42.8149 36.0595 42.9694 34.6029L43 34.6181V40C42.7348 40 42.4804 40.1054 42.2929 40.2929C42.1054 40.4804 42 40.7348 42 41V49C42 49.2652 42.1054 49.5196 42.2929 49.7071C42.4804 49.8946 42.7348 50 43 50V60ZM27 21H27.05C27.2283 22.8137 27.9021 24.5435 28.9975 26H26V23C26.0003 22.7664 25.9185 22.5401 25.7687 22.3608V22.3599L21.3016 17H23C23.0012 18.0605 23.423 19.0772 24.1729 19.8271C24.9228 20.577 25.9395 20.9988 27 21ZM37 30C38.3764 29.999 39.7379 29.7151 41 29.166V34C40.995 35.0458 40.5826 36.0486 39.8503 36.7952C39.118 37.5419 38.1235 37.9738 37.078 37.9991C36.5534 38.0083 36.0323 37.9118 35.5458 37.7153C35.0593 37.5189 34.6173 37.2265 34.2461 36.8556C33.8536 36.4699 33.5414 36.0102 33.3275 35.5031C33.1136 34.996 33.0023 34.4516 33 33.9012V29.165C33.9079 29.5637 34.8707 29.8232 35.856 29.9347C36.2358 29.978 36.6177 29.9998 37 30ZM21 34H24V34.18L22.8516 34.4098C22.2028 34.5407 21.5782 34.7714 21 35.0938V34ZM26 28H27.4205C26.9007 28.3114 26.4232 28.6887 26 29.1224V28ZM29.6726 33.0456L26.025 33.775C26.0803 32.4918 26.6283 31.2794 27.555 30.3901C28.4817 29.5008 29.7156 29.0031 31 29.0006V32.382L29.6726 33.0456ZM24 32H16V24H24V32ZM16 34H19V36.8148C18.7178 37.1827 18.4763 37.5801 18.2796 38H16V34ZM17.2405 46.9115L18.4236 47.6198L15.8796 50.8L17.2405 46.9115ZM19.6846 46.0435L17.915 44.9842L18.4939 43.3304L19.9171 39.2639C20.1741 38.5352 20.6158 37.8856 21.1988 37.3785C21.7819 36.8715 22.4865 36.5244 23.2439 36.371L24 36.2197V40.6493L19.6846 46.0435ZM26.0175 35.8162L29 35.2197V40H26.0175V35.8162ZM45 35.2199L48 35.8199V40H45V35.2199ZM47.9944 33.779L44.3274 33.0456L43 32.382V29C44.2873 29.0016 45.5245 29.499 46.4546 30.389C47.3846 31.279 47.9361 32.493 47.9944 33.779ZM41.4408 26.6486C40.9077 27.0134 40.3311 27.31 39.7244 27.5314C36.5788 28.6735 32.5946 27.5986 30.5842 24.8512C30.0225 24.066 29.6116 23.1833 29.3724 22.2479C28.9051 20.4854 28.939 18.6334 28.9761 16.8104L29.0119 15.0461C29.0071 14.8265 29.0302 14.6072 29.0806 14.3934C29.1884 14.086 29.3528 13.8015 29.5654 13.5548L31.1761 11.4318C31.2573 11.2794 31.3838 11.1559 31.5381 11.0783C31.6923 11.0008 31.8669 10.9729 32.0376 10.9986H41.9676C42.1312 10.9708 42.2994 10.9945 42.4489 11.0664C42.5985 11.1384 42.722 11.255 42.8024 11.4001L44.5617 13.7331C44.7187 13.92 44.8449 14.1307 44.9355 14.3573C45.0111 14.6466 45.0333 14.9474 45.001 15.2448C44.9086 17.5877 45.2909 19.9905 44.6485 22.2455C44.1212 24.0403 42.9874 25.5965 41.4408 26.6486ZM49 17C48.9994 17.5302 48.7885 18.0386 48.4135 18.4135C48.0386 18.7885 47.5302 18.9994 47 19V15C47.5302 15.0006 48.0386 15.2115 48.4135 15.5865C48.7885 15.9614 48.9994 16.4698 49 17ZM29 9C29.0015 7.67437 29.5288 6.40347 30.4661 5.46611C31.4035 4.52875 32.6744 4.00149 34 4H40C41.3256 4.00149 42.5965 4.52875 43.5339 5.46611C44.4712 6.40347 44.9985 7.67437 45 9V11L43.8 9.4C43.7069 9.2758 43.5861 9.175 43.4472 9.10557C43.3084 9.03615 43.1552 9 43 9H31C30.8448 9 30.6916 9.03615 30.5528 9.10557C30.4139 9.175 30.2931 9.2758 30.2 9.4L29 11V9ZM27 19C26.4696 19 25.9609 18.7893 25.5858 18.4142C25.2107 18.0391 25 17.5304 25 17C25 16.4696 25.2107 15.9609 25.5858 15.5858C25.9609 15.2107 26.4696 15 27 15V19ZM24 14.3585C23.8254 14.5567 23.6707 14.7715 23.5381 15H21V13H24V14.3585ZM20 18.5625L22.865 22H17.135L20 18.5625ZM5.618 28H14V30H4.618L5.618 28ZM4 32H14V42H4V32ZM16 42V40H17.5406L16.8406 42H16ZM20.0481 58.2842C18.9169 61 14 60.4686 14 57.2985C14.0008 56.6852 14.2095 56.0904 14.592 55.611L25.4806 42H30V48H25C24.8118 47.9977 24.6268 48.0495 24.4671 48.1492C24.3074 48.2489 24.1797 48.3924 24.0991 48.5625L20.0481 58.2842ZM26.0175 59.9375V50H29V60L26.0175 59.9375ZM45 60V50H48V60H45ZM57.3 60.0131C55.9678 60.1865 54.5292 59.6702 53.974 58.3375L49.9231 48.6154C49.8472 48.4331 49.719 48.2774 49.5547 48.1679C49.3904 48.0584 49.1974 48 49 48H44V42H48.5194L59.408 55.6109C59.7759 56.071 59.9808 56.6402 59.9906 57.2293C60.0004 57.8184 59.8146 58.3941 59.4621 58.8662C58.9466 59.5555 58.1356 59.9045 57.3 60.0131Z" fill="black"/>
<path d="M2 47H9V49H2V47Z" fill="black"/>
<path d="M5 52H11V54H5V52Z" fill="black"/>
<path d="M2 58H4V60H2V58Z" fill="black"/>
<path d="M6 58H10V60H6V58Z" fill="black"/>
<path d="M59 42H62V44H59V42Z" fill="black"/>
<path d="M57 36H62V38H57V36Z" fill="black"/>
</svg>
