<svg width="128" height="128" viewBox="0 0 128 128" fill="none" xmlns="http://www.w3.org/2000/svg">
<path d="M64 0C40.474 0 21.3333 19.1408 21.3333 42.6668C21.3333 49.7293 23.099 56.7318 26.4558 62.9427L61.6668 126.625C62.1355 127.474 63.0288 128 64 128C64.9712 128 65.8645 127.474 66.3333 126.625L101.557 62.9217C104.901 56.7318 106.667 49.729 106.667 42.6665C106.667 19.1408 87.526 0 64 0ZM64 64C52.237 64 42.6668 54.4298 42.6668 42.6668C42.6668 30.9038 52.237 21.3335 64 21.3335C75.763 21.3335 85.3333 30.9038 85.3333 42.6668C85.3333 54.4298 75.763 64 64 64Z" fill="black"/>
</svg>
